<svg width="30" height="36" viewBox="0 0 30 36" fill="none" xmlns="http://www.w3.org/2000/svg">
<path d="M29.3359 2.47322L29.3359 2.47341C29.3412 9.33927 27.081 15.9215 23.0591 20.7835C19.0612 25.6165 13.6501 28.3553 8.00061 28.4308L6.24999 26.8556L8.00862 25.2731C13.0116 25.1892 17.7778 22.7536 21.2853 18.507C24.8139 14.2348 26.7878 8.47181 26.7875 2.47321C26.7875 2.04129 26.931 1.63423 27.176 1.34021C27.42 1.04752 27.74 0.894535 28.0617 0.894535C28.3835 0.894535 28.7035 1.04752 28.9475 1.34021C29.1925 1.63423 29.3359 2.04129 29.3359 2.47322ZM4.01552 26.6698L3.80899 26.8556L4.01552 27.0415L10.5187 32.8932C10.7919 33.1391 10.9812 33.5141 11.0321 33.9413C11.0829 34.3683 10.9894 34.7982 10.7788 35.135C10.5687 35.4711 10.2654 35.6793 9.94476 35.7342C9.62599 35.7889 9.29535 35.6915 9.02415 35.4474L0.895129 28.1327C0.735564 27.9891 0.602624 27.7997 0.509904 27.5773C0.417191 27.3548 0.368228 27.1076 0.368228 26.8556C0.368228 26.6037 0.417191 26.3564 0.509904 26.134C0.602624 25.9115 0.735564 25.7221 0.895129 25.5785L9.02415 18.2638C9.15896 18.1425 9.3096 18.0567 9.46662 18.0084C9.62342 17.9602 9.78559 17.9497 9.94476 17.977C10.2654 18.032 10.5687 18.2401 10.7788 18.5762C10.8827 18.7424 10.9596 18.9336 11.0035 19.1393C11.0474 19.3449 11.0571 19.5593 11.0321 19.77C11.007 19.9806 10.9477 20.1818 10.8588 20.362C10.7699 20.5421 10.6537 20.6966 10.5187 20.818L4.01552 26.6698Z" fill="black" stroke="#FDD303" stroke-width="0.5"/>
</svg>
