<?xml version="1.0" encoding="UTF-8"?>
<svg xmlns="http://www.w3.org/2000/svg" width="72" height="63" viewBox="0 0 72 63" fill="none">
  <path d="M6.58626 5.01893C6.86291 2.48236 9.00517 0.561035 11.5568 0.561035H65.7356C68.7116 0.561035 71.0288 3.14467 70.7061 6.10314L65.0348 58.1031C64.7582 60.6397 62.6159 62.561 60.0643 62.561H5.88552C2.90951 62.561 0.592326 59.9774 0.914985 57.0189L6.58626 5.01893Z" fill="#FDD303"></path>
  <rect x="22.4775" y="11.561" width="18" height="18" rx="9" fill="white"></rect>
  <path d="M27.3425 49.561L26.4671 49.0778L25.6483 50.561H27.3425V49.561ZM42.3665 22.345L43.242 22.8283L44.0608 21.345H42.3665V22.345ZM26.5745 22.345H25.5745V23.345H26.5745V22.345ZM26.5745 15.961V14.961H25.5745V15.961H26.5745ZM50.7665 15.961H51.7665V14.961H50.7665V15.961ZM50.7665 21.529L51.6473 22.0026L51.7665 21.7808V21.529H50.7665ZM35.6945 49.561V50.561H36.2923L36.5753 50.0346L35.6945 49.561ZM28.218 50.0443L43.242 22.8283L41.4911 21.8618L26.4671 49.0778L28.218 50.0443ZM42.3665 21.345H26.5745V23.345H42.3665V21.345ZM27.5745 22.345V15.961H25.5745V22.345H27.5745ZM26.5745 16.961H50.7665V14.961H26.5745V16.961ZM49.7665 15.961V21.529H51.7665V15.961H49.7665ZM49.8858 21.0555L34.8138 49.0875L36.5753 50.0346L51.6473 22.0026L49.8858 21.0555ZM35.6945 48.561H27.3425V50.561H35.6945V48.561Z" fill="black"></path>
</svg>
