<?xml version="1.0" encoding="UTF-8"?>
<svg xmlns="http://www.w3.org/2000/svg" width="72" height="63" viewBox="0 0 72 63" fill="none">
  <path d="M7.14681 5.01893C7.42345 2.48236 9.56572 0.561035 12.1173 0.561035H66.2961C69.2721 0.561035 71.5893 3.14467 71.2667 6.10314L65.5954 58.1031C65.3187 60.6397 63.1765 62.561 60.6249 62.561H6.44606C3.47005 62.561 1.15287 59.9774 1.47553 57.0189L7.14681 5.01893Z" fill="#FDD303"></path>
  <rect x="20.8711" y="10.4624" width="18" height="18" rx="9" fill="white"></rect>
  <path d="M23.9351 45.097L23.1686 44.4548L22.5667 45.1732L23.2446 45.8204L23.9351 45.097ZM28.3991 39.769L29.07 39.0275L28.2997 38.3306L27.6326 39.1268L28.3991 39.769ZM40.5431 42.169L41.1857 42.9352L40.5431 42.169ZM40.3991 35.353L39.7916 36.1474L39.7991 36.1531L39.8067 36.1587L40.3991 35.353ZM30.4631 35.353L29.9106 36.1865L30.3596 36.4842L30.8552 36.273L30.4631 35.353ZM26.1911 32.521L25.1928 32.4632L25.1595 33.0369L25.6386 33.3545L26.1911 32.521ZM27.1511 15.961V14.961H26.2074L26.1528 15.9032L27.1511 15.961ZM47.7911 15.961H48.7911V14.961H47.7911V15.961ZM47.7911 22.441V23.441H48.7911V22.441H47.7911ZM33.4871 22.441V21.441H32.551L32.4893 22.3751L33.4871 22.441ZM33.1031 28.249L32.1053 28.1831L32.0148 29.5519L33.3456 29.2192L33.1031 28.249ZM46.0151 30.361L45.3794 31.133L46.0151 30.361ZM45.7751 47.017L46.4452 47.7593L46.4457 47.7588L45.7751 47.017ZM36.5111 49.137C31.9044 49.137 27.9596 47.5562 24.6256 44.3737L23.2446 45.8204C26.9505 49.3579 31.3898 51.137 36.5111 51.137V49.137ZM24.7016 45.7393L29.1656 40.4113L27.6326 39.1268L23.1686 44.4548L24.7016 45.7393ZM27.7282 40.5106C30.5323 43.0477 33.4329 44.417 36.4151 44.417V42.417C34.0853 42.417 31.6418 41.3544 29.07 39.0275L27.7282 40.5106ZM36.4151 44.417C38.3256 44.417 39.9581 43.9649 41.1857 42.9352L39.9005 41.4028C39.1441 42.0372 38.0246 42.417 36.4151 42.417V44.417ZM41.1857 42.9352C42.4421 41.8815 43.0311 40.4115 43.0311 38.665H41.0311C41.0311 39.9266 40.6281 40.7926 39.9005 41.4028L41.1857 42.9352ZM43.0311 38.665C43.0311 36.9549 42.3483 35.5451 40.9915 34.5474L39.8067 36.1587C40.6259 36.761 41.0311 37.5592 41.0311 38.665H43.0311ZM41.0065 34.5587C39.697 33.5572 38.0228 33.105 36.0791 33.105V35.105C37.7194 35.105 38.9252 35.4848 39.7916 36.1474L41.0065 34.5587ZM36.0791 33.105C34.1299 33.105 32.1245 33.5578 30.071 34.4331L30.8552 36.273C32.7057 35.4842 34.4443 35.105 36.0791 35.105V33.105ZM31.0156 34.5195L26.7436 31.6875L25.6386 33.3545L29.9106 36.1865L31.0156 34.5195ZM27.1894 32.5789L28.1494 16.0189L26.1528 15.9032L25.1928 32.4632L27.1894 32.5789ZM27.1511 16.961H47.7911V14.961H27.1511V16.961ZM46.7911 15.961V22.441H48.7911V15.961H46.7911ZM47.7911 21.441H33.4871V23.441H47.7911V21.441ZM32.4893 22.3751L32.1053 28.1831L34.1009 28.315L34.4849 22.507L32.4893 22.3751ZM33.3456 29.2192C34.812 28.8526 36.2023 28.673 37.5191 28.673V26.673C36.0199 26.673 34.4662 26.8775 32.8606 27.2789L33.3456 29.2192ZM37.5191 28.673C40.8319 28.673 43.4218 29.5208 45.3794 31.133L46.6508 29.5891C44.2564 27.6172 41.1823 26.673 37.5191 26.673V28.673ZM45.3794 31.133C47.2604 32.682 48.2791 35.0771 48.2791 38.521H50.2791C50.2791 34.669 49.1218 31.624 46.6508 29.5891L45.3794 31.133ZM48.2791 38.521C48.2791 41.8304 47.2027 44.3782 45.1044 46.2753L46.4457 47.7588C49.0194 45.4319 50.2791 42.3156 50.2791 38.521H48.2791ZM45.105 46.2748C43.0271 48.1506 40.1993 49.137 36.5111 49.137V51.137C40.5669 51.137 43.915 50.0435 46.4452 47.7593L45.105 46.2748Z" fill="black"></path>
</svg>
