<?xml version="1.0" encoding="UTF-8"?>
<svg xmlns="http://www.w3.org/2000/svg" width="72" height="63" viewBox="0 0 72 63" fill="none">
  <path d="M6.4554 5.01893C6.73205 2.48236 8.87431 0.561035 11.4259 0.561035H65.6047C68.5807 0.561035 70.8979 3.14467 70.5752 6.10314L64.904 58.1031C64.6273 60.6397 62.4851 62.561 59.9334 62.561H5.75466C2.77865 62.561 0.461466 59.9774 0.784125 57.0189L6.4554 5.01893Z" fill="#FDD303"></path>
  <rect x="14.4199" y="36.561" width="18" height="18" rx="9" fill="white"></rect>
  <path d="M20.7237 49.561H19.7237V50.561H20.7237V49.561ZM20.7237 23.209H21.7237V21.9333L20.4849 22.238L20.7237 23.209ZM14.8677 24.649L13.8985 24.8952L14.1427 25.8571L15.1065 25.6201L14.8677 24.649ZM13.3317 18.601L13.0457 17.6428L12.1263 17.9173L12.3625 18.8472L13.3317 18.601ZM22.9797 15.721V14.721H22.8336L22.6937 14.7628L22.9797 15.721ZM28.0197 15.721H29.0197V14.721H28.0197V15.721ZM28.0197 49.561V50.561H29.0197V49.561H28.0197ZM21.7237 49.561V23.209H19.7237V49.561H21.7237ZM20.4849 22.238L14.6289 23.678L15.1065 25.6201L20.9625 24.1801L20.4849 22.238ZM15.8369 24.4029L14.3009 18.3549L12.3625 18.8472L13.8985 24.8952L15.8369 24.4029ZM13.6177 19.5593L23.2657 16.6793L22.6937 14.7628L13.0457 17.6428L13.6177 19.5593ZM22.9797 16.721H28.0197V14.721H22.9797V16.721ZM27.0197 15.721V49.561H29.0197V15.721H27.0197ZM28.0197 48.561H20.7237V50.561H28.0197V48.561ZM33.2937 44.329L32.6039 43.6051L31.9227 44.2541L32.5291 44.9736L33.2937 44.329ZM38.3817 39.481L39.1276 38.815L38.4397 38.0445L37.6919 38.7571L38.3817 39.481ZM49.9017 42.409L50.5502 43.1703L50.5525 43.1683L49.9017 42.409ZM41.5977 35.065L40.6264 35.3029L40.813 36.065H41.5977V35.065ZM40.4457 30.361L39.7365 29.656L39.3409 30.054L39.4744 30.5989L40.4457 30.361ZM48.4617 22.297L49.1709 23.002L50.8657 21.297H48.4617V22.297ZM35.2617 22.297H34.2617V23.297H35.2617V22.297ZM35.2617 15.961V14.961H34.2617V15.961H35.2617ZM57.9657 15.961H58.9657V14.961H57.9657V15.961ZM57.9657 21.529L58.6563 22.2523L58.9657 21.9569V21.529H57.9657ZM49.4697 29.641L48.7791 28.9178L47.339 30.2928L49.3019 30.6269L49.4697 29.641ZM55.1817 47.065L54.5016 46.3318L54.4963 46.3368L55.1817 47.065ZM46.3977 49.137C41.1935 49.137 37.1155 47.3113 34.0583 43.6845L32.5291 44.9736C35.9998 49.0908 40.6579 51.137 46.3977 51.137V49.137ZM33.9835 45.053L39.0715 40.205L37.6919 38.7571L32.6039 43.6051L33.9835 45.053ZM37.6358 40.147C40.1845 43.0017 43.1446 44.513 46.4937 44.513V42.513C43.8268 42.513 41.3789 41.3364 39.1276 38.815L37.6358 40.147ZM46.4937 44.513C48.0802 44.513 49.4648 44.0948 50.5502 43.1703L49.2532 41.6478C48.6106 42.1952 47.7232 42.513 46.4937 42.513V44.513ZM50.5525 43.1683C51.6905 42.1928 52.2457 40.881 52.2457 39.337H50.2457C50.2457 40.3531 49.9049 41.0892 49.2509 41.6498L50.5525 43.1683ZM52.2457 39.337C52.2457 37.6225 51.4979 36.2475 50.0561 35.3263L48.9793 37.0117C49.8414 37.5625 50.2457 38.2996 50.2457 39.337H52.2457ZM50.0561 35.3263C48.68 34.4472 46.848 34.065 44.6697 34.065V36.065C46.6513 36.065 48.0514 36.4189 48.9793 37.0117L50.0561 35.3263ZM44.6697 34.065H41.5977V36.065H44.6697V34.065ZM42.569 34.8272L41.417 30.1232L39.4744 30.5989L40.6264 35.3029L42.569 34.8272ZM41.1549 31.066L49.1709 23.002L47.7525 21.592L39.7365 29.656L41.1549 31.066ZM48.4617 21.297H35.2617V23.297H48.4617V21.297ZM36.2617 22.297V15.961H34.2617V22.297H36.2617ZM35.2617 16.961H57.9657V14.961H35.2617V16.961ZM56.9657 15.961V21.529H58.9657V15.961H56.9657ZM57.2751 20.8058L48.7791 28.9178L50.1603 30.3643L58.6563 22.2523L57.2751 20.8058ZM49.3019 30.6269C52.1794 31.1166 54.2062 32.0978 55.5125 33.4736C56.8035 34.8333 57.4937 36.6868 57.4937 39.145H59.4937C59.4937 36.2913 58.6799 33.9048 56.9629 32.0965C55.2612 30.3043 52.776 29.1894 49.6375 28.6552L49.3019 30.6269ZM57.4937 39.145C57.4937 42.1216 56.4895 44.4881 54.5016 46.3319L55.8617 47.7982C58.2899 45.546 59.4937 42.6325 59.4937 39.145H57.4937ZM54.4963 46.3368C52.5465 48.1719 49.885 49.137 46.3977 49.137V51.137C50.2704 51.137 53.4648 50.0541 55.8671 47.7932L54.4963 46.3368Z" fill="black"></path>
</svg>
