<?xml version="1.0" encoding="UTF-8"?>
<svg xmlns="http://www.w3.org/2000/svg" width="72" height="63" viewBox="0 0 72 63" fill="none">
  <path d="M6.9886 5.01893C7.26525 2.48236 9.40752 0.561035 11.9591 0.561035H66.1379C69.1139 0.561035 71.4311 3.14467 71.1085 6.10314L65.4372 58.1031C65.1605 60.6397 63.0183 62.561 60.4667 62.561H6.28786C3.31185 62.561 0.994669 59.9774 1.31733 57.0189L6.9886 5.01893Z" fill="#FDD303"></path>
  <rect x="39.2129" y="11.561" width="18" height="18" rx="9" fill="white"></rect>
  <path d="M28.2889 46.537L27.5818 47.2441L28.2889 46.537ZM28.0489 20.473L27.2435 19.8804L28.0489 20.473ZM49.5529 19.081L50.3796 19.6437L50.9024 18.8755L50.1746 18.2978L49.5529 19.081ZM45.6649 24.793L45.0582 25.588L45.8975 26.2285L46.4916 25.3557L45.6649 24.793ZM42.3049 22.777L41.8933 23.6884L41.9108 23.6963L41.9285 23.7035L42.3049 22.777ZM34.0969 24.265L33.316 23.6403L33.3143 23.6425L34.0969 24.265ZM32.0329 29.881L31.0388 29.7721L30.8066 31.8917L32.5848 30.715L32.0329 29.881ZM47.4889 30.553L48.1388 29.793L47.4889 30.553ZM47.1529 46.873L47.8197 47.6183L47.1529 46.873ZM33.4249 42.409L32.7522 43.149L32.7585 43.1546L32.7648 43.1602L33.4249 42.409ZM41.9209 42.409L42.5924 43.15L41.9209 42.409ZM41.8729 35.257L41.2128 36.0082L41.2193 36.0139L41.2259 36.0195L41.8729 35.257ZM33.3769 35.209L34.0354 35.9616L33.3769 35.209ZM37.9849 49.137C34.13 49.137 31.1722 48.0062 28.996 45.8299L27.5818 47.2441C30.2056 49.8679 33.7117 51.137 37.9849 51.137V49.137ZM28.996 45.8299C26.6103 43.4443 25.3049 39.4899 25.3049 33.721H23.3049C23.3049 39.7281 24.6555 44.3178 27.5818 47.2441L28.996 45.8299ZM25.3049 33.721C25.3049 28.432 26.5172 24.2418 28.8543 21.0657L27.2435 19.8804C24.5885 23.4883 23.3049 28.1301 23.3049 33.721H25.3049ZM28.8543 21.0657C31.1322 17.9701 34.4733 16.385 39.0409 16.385V14.385C33.9445 14.385 29.9576 16.1919 27.2435 19.8804L28.8543 21.0657ZM39.0409 16.385C42.7154 16.385 46.0011 17.5383 48.9312 19.8643L50.1746 18.2978C46.8967 15.6957 43.1743 14.385 39.0409 14.385V16.385ZM48.7262 18.5183L44.8382 24.2303L46.4916 25.3557L50.3796 19.6437L48.7262 18.5183ZM46.2716 23.9981C45.0099 23.0352 43.8122 22.31 42.6813 21.8506L41.9285 23.7035C42.8456 24.0761 43.8879 24.6949 45.0582 25.588L46.2716 23.9981ZM42.7165 21.8657C41.5685 21.3472 40.2544 21.105 38.8009 21.105V23.105C40.0354 23.105 41.0573 23.3109 41.8933 23.6884L42.7165 21.8657ZM38.8009 21.105C36.5396 21.105 34.6737 21.9432 33.316 23.6403L34.8778 24.8897C35.8241 23.7069 37.0942 23.105 38.8009 23.105V21.105ZM33.3143 23.6425C32.0458 25.2372 31.3092 27.3048 31.0388 29.7721L33.0269 29.99C33.2685 27.7853 33.908 26.1089 34.8795 24.8876L33.3143 23.6425ZM32.5848 30.715C34.6072 29.3766 36.737 28.721 38.9929 28.721V26.721C36.3208 26.721 33.8105 27.5055 31.481 29.0471L32.5848 30.715ZM38.9929 28.721C42.258 28.721 44.8452 29.6082 46.839 31.3131L48.1388 29.793C45.7166 27.7219 42.6398 26.721 38.9929 26.721V28.721ZM46.839 31.3131C48.7844 32.9766 49.8009 35.3317 49.8009 38.521H51.8009C51.8009 34.8624 50.6093 31.9055 48.1388 29.793L46.839 31.3131ZM49.8009 38.521C49.8009 41.6413 48.6968 44.1498 46.4861 46.1278L47.8197 47.6183C50.473 45.2442 51.8009 42.1848 51.8009 38.521H49.8009ZM46.4861 46.1278C44.2611 48.1186 41.4525 49.137 37.9849 49.137V51.137C41.8772 51.137 45.1807 49.9795 47.8197 47.6183L46.4861 46.1278ZM32.7648 43.1602C34.049 44.2888 35.7306 44.801 37.6969 44.801V42.801C36.0791 42.801 34.9128 42.3853 34.085 41.6579L32.7648 43.1602ZM37.6969 44.801C39.6614 44.801 41.3352 44.2894 42.5924 43.15L41.2494 41.668C40.4586 42.3847 39.3164 42.801 37.6969 42.801V44.801ZM42.5924 43.15C43.8454 42.0145 44.4569 40.5194 44.4569 38.761H42.4569C42.4569 40.0107 42.0444 40.9476 41.2494 41.668L42.5924 43.15ZM44.4569 38.761C44.4569 37.0408 43.8098 35.589 42.5199 34.4945L41.2259 36.0195C42.048 36.717 42.4569 37.6013 42.4569 38.761H44.4569ZM42.533 34.5059C41.2488 33.3773 39.5671 32.865 37.6009 32.865V34.865C39.2186 34.865 40.385 35.2808 41.2128 36.0082L42.533 34.5059ZM37.6009 32.865C35.6448 32.865 33.9759 33.3561 32.7184 34.4565L34.0354 35.9616C34.8258 35.27 35.973 34.865 37.6009 34.865V32.865ZM32.7184 34.4565C31.453 35.5637 30.8409 37.0507 30.8409 38.809H32.8409C32.8409 37.5593 33.2528 36.6464 34.0354 35.9616L32.7184 34.4565ZM30.8409 38.809C30.8409 40.5279 31.4856 41.9975 32.7522 43.149L34.0976 41.6691C33.2522 40.9006 32.8409 39.9702 32.8409 38.809H30.8409Z" fill="black"></path>
</svg>
