<?xml version="1.0" encoding="UTF-8"?>
<svg xmlns="http://www.w3.org/2000/svg" width="75" height="67" viewBox="0 0 75 67" fill="none">
  <path d="M6.65667 5.01845C6.93331 2.48187 9.07558 0.560547 11.6272 0.560547H69.425C72.401 0.560547 74.7182 3.14418 74.3956 6.10265L68.3433 61.5956C68.0667 64.1322 65.9244 66.0535 63.3728 66.0535H5.57496C2.59895 66.0535 0.281779 63.4699 0.604438 60.5114L6.65667 5.01845Z" fill="#FDD303"></path>
  <rect x="48.3057" y="23.1377" width="19.0141" height="19.0141" rx="9.50704" fill="white"></rect>
  <path d="M62.0105 29.2675C61.7753 29.0324 61.4375 28.9306 61.1118 28.9961L52.5473 30.7194C52.1883 30.7918 51.898 31.0557 51.7921 31.4061C51.6861 31.7566 51.7816 32.1371 52.0406 32.3961L53.1993 33.5546L48.6518 38.1014L45.1313 34.5816C44.9449 34.3953 44.6922 34.2905 44.4287 34.2905C44.1651 34.2905 43.9124 34.3953 43.726 34.5816L39.4062 38.9007L41.0266 33.0794C41.4205 31.6642 41.1367 30.1818 40.248 29.0121C39.7036 28.2957 38.985 27.7675 38.1725 27.4649L39.4678 23.7652C39.8253 23.7966 40.1818 23.8126 40.5343 23.8126C43.4038 23.8126 46.2016 22.8013 48.4124 20.9653L48.6492 20.7687C49.8147 19.8005 50.0139 18.1178 49.1028 16.9383C48.6408 16.34 47.9732 15.9649 47.223 15.882C46.4724 15.799 45.739 16.0192 45.1583 16.5016L44.8893 16.725C44.4929 17.0542 44.0594 17.3385 43.6009 17.5697C42.0685 18.3425 40.155 17.9983 38.8835 16.7401C40.733 16.1674 42.0804 14.4411 42.0804 12.4061C42.0805 9.90496 40.0452 7.87012 37.5435 7.87012C35.0418 7.87012 33.0066 9.90496 33.0066 12.4062C33.0066 13.4015 33.3297 14.3224 33.8753 15.0711C32.8432 15.2933 31.9144 15.8254 31.2037 16.5776C31.1622 16.614 31.1225 16.6533 31.0865 16.6976C29.3346 18.8491 26.9992 20.3923 24.3327 21.1603C23.6107 21.3683 23.0393 21.8476 22.6964 22.4553L20.6596 20.4189C19.7684 19.5279 18.3185 19.528 17.4273 20.4189L14.7617 23.084L12.0962 25.7491C11.6645 26.1807 11.4268 26.7545 11.4268 27.365C11.4268 27.9755 11.6646 28.5493 12.0961 28.981L19.4404 36.324C19.8722 36.7556 20.446 36.9933 21.0566 36.9933C21.6672 36.9933 22.2411 36.7555 22.6728 36.324L25.4327 33.5645L24.1241 36.9955C23.9285 37.5082 24.1857 38.0824 24.6985 38.2779C24.815 38.3224 24.9347 38.3434 25.0524 38.3434C25.4527 38.3434 25.83 38.0998 25.9812 37.7037L29.2404 29.1588H35.4622H36.5378C37.3804 29.1588 38.1558 29.5435 38.6655 30.2143C39.1752 30.8851 39.3379 31.7352 39.112 32.5466L36.8539 40.6587C36.7523 41.0238 36.4166 41.2787 36.0376 41.2787C35.6976 41.2787 35.4879 41.0925 35.3932 40.9816C35.2985 40.8706 35.1474 40.6342 35.2008 40.2986L36.4023 32.7462C36.448 32.459 36.3656 32.1663 36.1767 31.9451C35.9879 31.7239 35.7117 31.5966 35.4209 31.5966H33.0649C32.6902 31.5966 32.3473 31.8073 32.1781 32.1416C32.1201 32.2563 26.3543 43.6547 24.4114 47.5062C24.2169 47.8919 23.7941 48.1119 23.3605 48.0526L23.3134 48.0463C23.0175 48.0063 22.7606 47.8362 22.608 47.5796C22.4555 47.3229 22.4291 47.0158 22.5356 46.737L23.1479 45.1317C23.3435 44.619 23.0863 44.0449 22.5735 43.8493C22.0609 43.6538 21.4866 43.911 21.2909 44.4236L20.6786 46.0289C20.3547 46.878 20.4352 47.8131 20.8994 48.5944C21.3636 49.3757 22.1463 49.8937 23.0463 50.0155L23.0934 50.0218C23.2296 50.0404 23.3654 50.0492 23.5002 50.0492C24.6253 50.0492 25.6717 49.4207 26.186 48.4011C27.8831 45.0368 32.4986 35.9113 33.676 33.5837H34.2566L33.2381 39.9864C33.1076 40.8068 33.3421 41.6398 33.8816 42.2716C34.2286 42.6781 34.678 42.9723 35.1755 43.131L24.1055 54.1991C23.9192 54.3855 23.8144 54.6381 23.8144 54.9016C23.8144 55.1651 23.9192 55.4179 24.1055 55.6042L26.9558 58.454C27.1499 58.6479 27.4042 58.745 27.6585 58.745C27.9128 58.745 28.1671 58.6479 28.3612 58.454L33.8408 52.9753C34.2288 52.5873 34.2288 51.9582 33.8408 51.5701C33.4526 51.1822 32.8236 51.1822 32.4353 51.5701L27.6585 56.3462L26.2136 54.9015L44.4289 36.6891L47.9493 40.209C48.1357 40.3953 48.3884 40.5 48.652 40.5C48.9155 40.5 49.1682 40.3953 49.3546 40.209L55.3074 34.2571C55.6955 33.8691 55.6955 33.2399 55.3074 32.8518L54.7571 32.3016L60.0387 31.2389L58.9758 36.5196L58.1579 35.7018C57.7697 35.3139 57.1407 35.3139 56.7524 35.7018L48.6519 43.801L45.1314 40.2812C44.7433 39.8933 44.1142 39.8933 43.726 40.2812L38.0566 45.9496C37.6685 46.3376 37.6685 46.9668 38.0566 47.3548C38.4448 47.7427 39.0738 47.7427 39.462 47.3548L44.4287 42.3891L47.9491 45.9089C48.3372 46.2968 48.9663 46.2968 49.3545 45.9089L57.4551 37.8097L58.8815 39.2359C59.1405 39.4948 59.5212 39.5905 59.8716 39.4843C60.2222 39.3785 60.4862 39.0883 60.5584 38.7292L62.2821 30.1661C62.3477 29.8401 62.2457 29.5028 62.0105 29.2675ZM37.5435 9.85726C38.9493 9.85726 40.0929 11.0008 40.0929 12.4062C40.0929 13.8117 38.9492 14.9552 37.5435 14.9552C36.1378 14.9552 34.9941 13.8117 34.9941 12.4062C34.9941 11.0008 36.1378 9.85726 37.5435 9.85726ZM27.7103 27.4684L26.5009 26.2592C27.0753 26.0718 27.6394 25.8575 28.1917 25.6177L27.7103 27.4684ZM24.3565 24.0219C24.239 23.6143 24.4753 23.1872 24.8829 23.0698C26.5165 22.5993 28.0402 21.8728 29.413 20.924L28.8518 23.081C27.7346 23.6982 26.5452 24.1919 25.3084 24.548C25.2855 24.5546 25.2614 24.5604 25.2377 24.5649C25.0543 24.5998 24.8709 24.5634 24.7168 24.4755L24.4258 24.1845C24.3971 24.1337 24.3732 24.0797 24.3565 24.0219ZM18.8325 21.824C18.8906 21.7658 18.9671 21.7368 19.0434 21.7368C19.1197 21.7368 19.1961 21.7658 19.2541 21.824L22.8765 25.4457C23.0446 25.6752 23.2449 25.8752 23.4706 26.0397L26.5985 29.1671C26.7148 29.2832 26.7148 29.4724 26.5985 29.5885L24.6356 31.5511L22.4527 29.3685L22.8685 28.9528C23.2565 28.5648 23.2565 27.9356 22.8685 27.5475L20.6316 25.311C20.2434 24.9231 19.6144 24.9231 19.2261 25.311L18.8103 25.7267L16.8697 23.7864L18.8325 21.824ZM20.1927 28.8178C20.0976 28.9129 19.9866 28.9272 19.9289 28.9272C19.8713 28.9272 19.7603 28.9129 19.6652 28.8179V28.8178L19.3612 28.514C19.2662 28.4189 19.2519 28.3079 19.2519 28.2503C19.2519 28.1926 19.2662 28.0816 19.3613 27.9865L19.9289 27.419L20.7604 28.2503L20.1927 28.8178ZM21.2674 34.9189C21.1951 34.991 21.1129 35.0061 21.0566 35.0061C21.0003 35.0061 20.918 34.991 20.8458 34.9188L13.5016 27.5758C13.4293 27.5035 13.4142 27.4213 13.4142 27.365C13.4142 27.3087 13.4293 27.2264 13.5016 27.1543L15.4643 25.1918L17.4979 27.2249C17.3454 27.5407 17.2644 27.8892 17.2644 28.2503C17.2644 28.8808 17.51 29.4735 17.9558 29.9192L18.2597 30.2229V30.223C18.7055 30.6688 19.2984 30.9144 19.9289 30.9144C20.29 30.9144 20.6386 30.8335 20.9544 30.6809L23.2303 32.9564L21.2674 34.9189ZM35.4621 27.1717H29.8412L31.8826 19.3251C32.2477 17.9222 33.5152 16.9424 34.9651 16.9424C35.8607 16.9424 36.6892 17.3035 37.2979 17.9592C39.1649 19.9706 42.1252 20.54 44.4961 19.344C45.0882 19.0454 45.6479 18.6787 46.1595 18.2537L46.4285 18.0302C46.5906 17.8955 46.7953 17.8337 47.0049 17.8573C47.2141 17.8804 47.4005 17.9853 47.5299 18.1529C47.7797 18.4761 47.712 18.964 47.3793 19.2403L47.1426 19.4369C45.2878 20.9773 42.941 21.8257 40.5344 21.8257C40.0118 21.8257 39.4777 21.7838 38.9467 21.7013C38.4728 21.6269 38.0144 21.9024 37.856 22.3547L36.1694 27.1717H35.4621Z" fill="black"></path>
  <path d="M36.6437 47.1826C36.3935 47.1826 36.1481 47.2843 35.9711 47.4614C35.7942 47.6382 35.6924 47.8836 35.6924 48.1339C35.6924 48.3851 35.7941 48.6295 35.9711 48.8064C36.1481 48.9843 36.3935 49.0852 36.6437 49.0852C36.8939 49.0852 37.1393 48.9843 37.3162 48.8064C37.4931 48.6295 37.595 48.385 37.595 48.1339C37.595 47.8836 37.4932 47.6382 37.3162 47.4614C37.1393 47.2843 36.8939 47.1826 36.6437 47.1826Z" fill="black"></path>
  <path d="M24.8341 41.032C25.0843 41.032 25.3297 40.9302 25.5067 40.7532C25.6835 40.5763 25.7854 40.3309 25.7854 40.0807C25.7854 39.8305 25.6836 39.5851 25.5067 39.4081C25.3288 39.2312 25.0843 39.1294 24.8341 39.1294C24.5839 39.1294 24.3385 39.2311 24.1606 39.4081C23.9837 39.5851 23.8828 39.8305 23.8828 40.0807C23.8828 40.3309 23.9837 40.5763 24.1606 40.7532C24.3385 40.9301 24.583 41.032 24.8341 41.032Z" fill="black"></path>
</svg>
