<?xml version="1.0" encoding="UTF-8"?>
<svg xmlns="http://www.w3.org/2000/svg" width="75" height="67" viewBox="0 0 75 67" fill="none">
  <path d="M6.65667 5.25868C6.93331 2.72211 9.07558 0.800781 11.6272 0.800781H69.425C72.401 0.800781 74.7182 3.38441 74.3956 6.34288L68.3433 61.8358C68.0667 64.3724 65.9244 66.2937 63.3728 66.2937H5.57496C2.59895 66.2937 0.281779 63.7101 0.604438 60.7516L6.65667 5.25868Z" fill="#FDD303"></path>
  <rect x="10.9648" y="32.1836" width="19.0141" height="19.0141" rx="9.50704" fill="white"></rect>
  <path d="M25.8529 26.6897C26.2827 26.6897 26.631 26.3413 26.631 25.9116V23.9772H48.8993V25.9116C48.8993 26.3413 49.2476 26.6897 49.6774 26.6897C50.1072 26.6897 50.4555 26.3413 50.4555 25.9116V23.1991C50.4555 22.7694 50.1072 22.421 49.6774 22.421H25.8529C25.4232 22.421 25.0748 22.7694 25.0748 23.1991V25.9116C25.0748 26.3413 25.4232 26.6897 25.8529 26.6897Z" fill="black" stroke="black" stroke-width="0.2"></path>
  <path d="M53.6473 44.3811C54.0771 44.3811 54.4254 44.0327 54.4254 43.603V40.8905C54.4254 40.4608 54.0771 40.1124 53.6473 40.1124H21.8812C21.4515 40.1124 21.1031 40.4608 21.1031 40.8905V43.603C21.1031 44.0327 21.4515 44.3811 21.8812 44.3811C22.311 44.3811 22.6594 44.0327 22.6594 43.603V41.6686H36.9861V43.603C36.9861 44.0327 37.3345 44.3811 37.7643 44.3811C38.1941 44.3811 38.5424 44.0327 38.5424 43.603V41.6686H52.8692V43.603C52.8692 44.0328 53.2175 44.3811 53.6473 44.3811Z" fill="black" stroke="black" stroke-width="0.2"></path>
  <path d="M31.1791 21.2651H44.3497C44.7795 21.2651 45.1278 20.9167 45.1278 20.4869V10.933C45.1278 10.5033 44.7795 10.1549 44.3497 10.1549H31.1791C30.7494 10.1549 30.401 10.5033 30.401 10.933V20.4869C30.401 20.9167 30.7493 21.2651 31.1791 21.2651ZM31.9572 11.7111H43.5715V19.7088H31.9572V11.7111Z" fill="black" stroke="black" stroke-width="0.2"></path>
  <path d="M28.4668 45.5377H15.2963C14.8666 45.5377 14.5182 45.8861 14.5182 46.3158V55.8698C14.5182 56.2995 14.8666 56.6479 15.2963 56.6479H28.4668C28.8966 56.6479 29.245 56.2995 29.245 55.8698V46.3158C29.245 45.8861 28.8966 45.5377 28.4668 45.5377ZM27.6887 55.0916H16.0744V47.0939H27.6887V55.0916Z" fill="black" stroke="black" stroke-width="0.2"></path>
  <path d="M60.2315 45.5377H47.0609C46.6311 45.5377 46.2828 45.8861 46.2828 46.3158V55.8698C46.2828 56.2995 46.6311 56.6479 47.0609 56.6479H60.2315C60.6613 56.6479 61.0096 56.2995 61.0096 55.8698V46.3158C61.0096 45.8861 60.6613 45.5377 60.2315 45.5377ZM59.4534 55.0916H47.839V47.0939H59.4534V55.0916Z" fill="black" stroke="black" stroke-width="0.2"></path>
  <path d="M42.3141 28.6239V32.0446C42.3141 32.4743 42.6624 32.8227 43.0922 32.8227C43.522 32.8227 43.8703 32.4743 43.8703 32.0446V29.402H55.4845V37.3997H43.8703V34.7571C43.8703 34.3273 43.522 33.9789 43.0922 33.9789C42.6624 33.9789 42.3141 34.3273 42.3141 34.7571V38.1778C42.3141 38.6075 42.6624 38.9559 43.0922 38.9559H56.2626C56.6925 38.9559 57.0408 38.6075 57.0408 38.1778V28.6239C57.0408 28.1942 56.6925 27.8458 56.2626 27.8458H43.0922C42.6624 27.8458 42.3141 28.1941 42.3141 28.6239Z" fill="black" stroke="black" stroke-width="0.2"></path>
  <path d="M45.1278 46.3158V46.3158C45.1277 45.8861 44.7794 45.5377 44.3496 45.5377H31.1791C30.7494 45.5377 30.401 45.8861 30.401 46.3158V55.8698C30.401 56.2995 30.7494 56.6479 31.1791 56.6479H44.3497C44.7795 56.6479 45.1278 56.2995 45.1278 55.8698V46.3158ZM43.5715 55.0916H31.9572V47.0939H43.5715V55.0916Z" fill="black" stroke="black" stroke-width="0.2"></path>
  <path d="M19.267 38.9559H32.4375C32.8673 38.9559 33.2157 38.6075 33.2157 38.1778V28.6239C33.2157 28.1942 32.8673 27.8458 32.4375 27.8458H19.267C18.8373 27.8458 18.4889 28.1942 18.4889 28.6239V38.1778C18.4889 38.6076 18.8372 38.9559 19.267 38.9559ZM20.0451 29.402H31.6594V37.3997H20.0451V29.402Z" fill="black" stroke="black" stroke-width="0.2"></path>
</svg>
