<?xml version="1.0" encoding="UTF-8"?>
<svg xmlns="http://www.w3.org/2000/svg" width="75" height="67" viewBox="0 0 75 67" fill="none">
  <path d="M6.65667 5.25868C6.93331 2.72211 9.07558 0.800781 11.6272 0.800781H69.425C72.401 0.800781 74.7182 3.38441 74.3956 6.34288L68.3433 61.8358C68.0667 64.3724 65.9244 66.2937 63.3728 66.2937H5.57496C2.59895 66.2937 0.281779 63.7101 0.604438 60.7516L6.65667 5.25868Z" fill="#FDD303"></path>
  <rect x="43.2207" y="5.58154" width="19.0141" height="19.0141" rx="9.50704" fill="white"></rect>
  <path d="M57.8739 19.6779L49.924 11.729C49.7602 11.5652 49.538 11.4731 49.3063 11.4731H23.3597C21.9146 11.4731 20.7388 12.6489 20.7388 14.094V15.7595C16.4472 17.443 13.4004 21.626 13.4004 26.5074C13.4004 26.9898 13.7916 27.381 14.274 27.381H24.9402C25.4226 27.381 25.8138 26.9898 25.8138 26.5074V15.8413C25.8138 15.3588 25.4226 14.9676 24.9402 14.9676C24.0982 14.9676 23.2773 15.0591 22.4861 15.2312V14.094C22.4861 13.6123 22.878 13.2204 23.3597 13.2204H48.4327V18.5495C48.4327 19.9946 49.6084 21.1704 51.0536 21.1704H56.3827V53.5818C56.3827 54.0635 55.9908 54.4554 55.509 54.4554H23.3597C22.878 54.4554 22.4861 54.0635 22.4861 53.5818V46.0977C22.4861 45.6153 22.0949 45.2241 21.6125 45.2241C21.13 45.2241 20.7388 45.6153 20.7388 46.0977V53.5818C20.7388 55.0269 21.9146 56.2027 23.3597 56.2027H55.509C56.9542 56.2027 58.1299 55.0269 58.1299 53.5818V20.2956C58.1299 20.0639 58.0378 19.8417 57.8739 19.6779ZM24.0665 16.7536V25.6338H15.1863C15.6039 20.9295 19.3623 17.1713 24.0665 16.7536ZM51.0536 19.4231C50.5718 19.4231 50.1799 19.0312 50.1799 18.5495V14.4557L55.1481 19.4231H51.0536Z" fill="black"></path>
  <path d="M22.2295 42.3063C22.0671 42.1437 21.8417 42.0503 21.6119 42.0503C21.3821 42.0503 21.1567 42.1437 20.9943 42.3063C20.8318 42.4688 20.7383 42.6942 20.7383 42.9239C20.7383 43.1537 20.8317 43.3791 20.9943 43.5415C21.1567 43.7041 21.3821 43.7975 21.6119 43.7975C21.8417 43.7975 22.0671 43.7041 22.2295 43.5415C22.3921 43.3791 22.4855 43.1537 22.4855 42.9239C22.4855 42.6942 22.3921 42.4688 22.2295 42.3063Z" fill="black"></path>
  <path d="M28.069 18.0977C27.5866 18.0977 27.1954 18.4889 27.1954 18.9713V28.7637H17.4029C16.9205 28.7637 16.5293 29.1549 16.5293 29.6374C16.5293 36.0004 21.706 41.1771 28.069 41.1771C34.432 41.1771 39.6088 36.0004 39.6088 29.6374C39.6088 23.2743 34.432 18.0977 28.069 18.0977ZM28.9426 19.8836C30.9878 20.0651 32.8539 20.8785 34.3448 22.1262L28.9426 27.5282V19.8836ZM28.069 39.4299C22.9638 39.4299 18.7584 35.503 18.3152 30.511H28.069C28.3101 30.511 28.5283 30.4133 28.6865 30.2554C28.6866 30.2553 28.6866 30.2553 28.6868 30.2551L35.5805 23.3615C37.0037 25.0622 37.8615 27.2515 37.8615 29.6374C37.8615 35.037 33.4686 39.4299 28.069 39.4299Z" fill="black"></path>
  <path d="M51.6723 39.0454C50.2271 39.0454 49.0514 40.2211 49.0514 41.6663C49.0514 42.0285 49.1253 42.3737 49.2587 42.6877L44.2255 47.7209C43.8796 47.5524 43.4914 47.4576 43.0815 47.4576C42.6813 47.4576 42.302 47.5481 41.9624 47.7091L38.6201 44.3668C38.7359 44.0712 38.8002 43.7498 38.8002 43.4134C38.8002 41.9683 37.6245 40.7926 36.1793 40.7926C34.7342 40.7926 33.5585 41.9683 33.5585 43.4134C33.5585 43.805 33.6454 44.1765 33.8 44.5104L30.5943 47.7162C30.2528 47.5528 29.8706 47.4612 29.4676 47.4612C28.0224 47.4612 26.8467 48.6369 26.8467 50.0821C26.8467 51.5272 28.0224 52.7029 29.4676 52.7029C30.9127 52.7029 32.0884 51.5272 32.0884 50.0821C32.0884 49.677 31.996 49.2931 31.8312 48.9504L35.0191 45.7625C35.3691 45.9362 35.763 46.0343 36.1795 46.0343C36.65 46.0343 37.0914 45.9091 37.4734 45.6912L40.7215 48.9393C40.5544 49.2839 40.4606 49.6704 40.4606 50.0785C40.4606 51.5236 41.6363 52.6994 43.0815 52.6994C44.5266 52.6994 45.7024 51.5236 45.7024 50.0785C45.7024 49.6803 45.6127 49.3027 45.4531 48.9644L50.4393 43.9782C50.807 44.1752 51.2268 44.2872 51.6723 44.2872C53.1174 44.2872 54.2931 43.1114 54.2931 41.6663C54.2931 40.2211 53.1174 39.0454 51.6723 39.0454ZM29.4675 50.9558C28.9857 50.9558 28.5938 50.5639 28.5938 50.0822C28.5938 49.6004 28.9857 49.2085 29.4675 49.2085C29.702 49.2085 29.9148 49.3019 30.0718 49.4529C30.0753 49.4566 30.0784 49.4605 30.082 49.4641C30.0862 49.4683 30.0907 49.4718 30.095 49.4758C30.247 49.633 30.3411 49.8467 30.3411 50.0822C30.3411 50.5638 29.9492 50.9558 29.4675 50.9558ZM36.1793 44.2871C35.6976 44.2871 35.3057 43.8952 35.3057 43.4134C35.3057 42.9317 35.6976 42.5398 36.1793 42.5398C36.6611 42.5398 37.053 42.9317 37.053 43.4134C37.053 43.8952 36.6611 44.2871 36.1793 44.2871ZM43.0813 50.9521C42.5996 50.9521 42.2077 50.5602 42.2077 50.0785C42.2077 49.5968 42.5996 49.2049 43.0813 49.2049C43.563 49.2049 43.9549 49.5968 43.9549 50.0785C43.9549 50.5602 43.563 50.9521 43.0813 50.9521ZM51.6721 42.5398C51.1904 42.5398 50.7985 42.1479 50.7985 41.6662C50.7985 41.1845 51.1905 40.7926 51.6721 40.7926C52.1538 40.7926 52.5457 41.1845 52.5457 41.6662C52.5457 42.1479 52.1538 42.5398 51.6721 42.5398Z" fill="black"></path>
  <path d="M47.3048 32.0034H42.6939C42.2115 32.0034 41.8203 32.3946 41.8203 32.877C41.8203 33.3595 42.2114 33.7507 42.6939 33.7507H47.3048C47.7872 33.7507 48.1785 33.3595 48.1785 32.877C48.1785 32.3946 47.7872 32.0034 47.3048 32.0034Z" fill="black"></path>
  <path d="M51.9004 32.2594C51.738 32.0969 51.5126 32.0034 51.2828 32.0034C51.053 32.0034 50.8276 32.0968 50.6652 32.2594C50.5027 32.4219 50.4092 32.6473 50.4092 32.877C50.4092 33.1068 50.5026 33.3322 50.6652 33.4946C50.8276 33.6571 51.0522 33.7507 51.2828 33.7507C51.5126 33.7507 51.738 33.6572 51.9004 33.4946C52.0629 33.3322 52.1564 33.1068 52.1564 32.877C52.1564 32.6473 52.0629 32.4219 51.9004 32.2594Z" fill="black"></path>
  <path d="M53.3656 23.6162H42.6939C42.2115 23.6162 41.8203 24.0074 41.8203 24.4898C41.8203 24.9722 42.2114 25.3635 42.6939 25.3635H53.3656C53.848 25.3635 54.2392 24.9722 54.2392 24.4898C54.2392 24.0074 53.848 23.6162 53.3656 23.6162Z" fill="black"></path>
  <path d="M53.3656 27.8101H42.6939C42.2115 27.8101 41.8203 28.2013 41.8203 28.6837C41.8203 29.1661 42.2114 29.5573 42.6939 29.5573H53.3656C53.848 29.5573 54.2392 29.1661 54.2392 28.6837C54.2392 28.2013 53.848 27.8101 53.3656 27.8101Z" fill="black"></path>
</svg>
