<?xml version="1.0" encoding="UTF-8"?>
<svg xmlns="http://www.w3.org/2000/svg" width="75" height="67" viewBox="0 0 75 67" fill="none">
  <path d="M6.65667 5.01845C6.93331 2.48187 9.07558 0.560547 11.6272 0.560547H69.425C72.401 0.560547 74.7182 3.14418 74.3956 6.10265L68.3433 61.5956C68.0667 64.1322 65.9244 66.0535 63.3728 66.0535H5.57496C2.59895 66.0535 0.281779 63.4699 0.604438 60.5114L6.65667 5.01845Z" fill="#FDD303"></path>
  <rect x="8.52734" y="39.5439" width="19.0141" height="19.0141" rx="9.50704" fill="white"></rect>
  <g clip-path="url(#clip0)">
    <path d="M40.8486 28.8077C40.8486 29.2806 41.2324 29.6643 41.7052 29.6643C42.178 29.6643 42.5618 29.2806 42.5618 28.8077C42.5618 28.3349 42.178 27.9512 41.7052 27.9512C41.2324 27.9512 40.8486 28.3349 40.8486 28.8077Z" fill="black"></path>
    <path d="M18.4066 54.1619H46.8447C48.2616 54.1619 49.4144 53.0092 49.4144 51.5922V18.0148C49.4144 16.5978 48.2616 15.4451 46.8447 15.4451H42.5618V14.5885C42.5618 14.1155 42.1783 13.7319 41.7053 13.7319H37.4724C36.757 11.7103 34.82 10.3057 32.6256 10.3057C30.4313 10.3057 28.4942 11.7103 27.7789 13.7319H23.546C23.073 13.7319 22.6895 14.1155 22.6895 14.5885V15.4451H18.4066C16.9897 15.4451 15.8369 16.5978 15.8369 18.0148V51.5922C15.8369 53.0092 16.9897 54.1619 18.4066 54.1619ZM24.4026 15.4451H28.4285C28.8359 15.4451 29.1869 15.158 29.268 14.7588C29.5901 13.1711 31.0022 12.0188 32.6256 12.0188C34.2491 12.0188 35.6612 13.1711 35.9833 14.7588C36.0644 15.158 36.4154 15.4451 36.8228 15.4451H40.8487V17.1582H24.4026V15.4451ZM17.5501 18.0148C17.5501 17.5425 17.9343 17.1582 18.4066 17.1582H22.6895V18.0148C22.6895 18.4878 23.073 18.8713 23.546 18.8713H41.7053C42.1783 18.8713 42.5618 18.4878 42.5618 18.0148V17.1582H46.8447C47.317 17.1582 47.7012 17.5425 47.7012 18.0148V51.5922C47.7012 52.0646 47.317 52.4488 46.8447 52.4488H18.4066C17.9343 52.4488 17.5501 52.0646 17.5501 51.5922V18.0148Z" fill="black"></path>
    <path d="M22.9407 29.4129C23.1079 29.5801 23.3271 29.6638 23.5463 29.6638C23.7656 29.6638 23.9847 29.5801 24.152 29.4129L27.5783 25.9867C27.9128 25.6522 27.9128 25.1098 27.5783 24.7752C27.2437 24.4408 26.7015 24.4408 26.3668 24.7752L23.5463 27.5958L22.4389 26.4884C22.1043 26.154 21.5621 26.154 21.2274 26.4884C20.8929 26.8228 20.8929 27.3652 21.2274 27.6998L22.9407 29.4129Z" fill="black"></path>
    <path d="M22.9407 37.9793C23.1079 38.1465 23.3271 38.2302 23.5463 38.2302C23.7656 38.2302 23.9847 38.1465 24.152 37.9793L27.5783 34.5531C27.9128 34.2186 27.9128 33.6762 27.5783 33.3416C27.2437 33.0072 26.7015 33.0072 26.3668 33.3416L23.5463 36.1622L22.4389 35.0548C22.1043 34.7204 21.5621 34.7204 21.2274 35.0548C20.8929 35.3892 20.8929 35.9316 21.2274 36.2662L22.9407 37.9793Z" fill="black"></path>
    <path d="M23.5463 41.6562C22.1293 41.6562 20.9766 42.809 20.9766 44.226C20.9766 45.6429 22.1293 46.7957 23.5463 46.7957C24.9632 46.7957 26.116 45.6429 26.116 44.226C26.116 42.809 24.9632 41.6562 23.5463 41.6562ZM23.5463 45.0825C23.074 45.0825 22.6897 44.6983 22.6897 44.226C22.6897 43.7536 23.074 43.3694 23.5463 43.3694C24.0186 43.3694 24.4028 43.7536 24.4028 44.226C24.4028 44.6983 24.0186 45.0825 23.5463 45.0825Z" fill="black"></path>
    <path d="M32.6261 26.2376H43.4189C43.8919 26.2376 44.2754 25.854 44.2754 25.381C44.2754 24.908 43.8919 24.5244 43.4189 24.5244H32.6261C32.1531 24.5244 31.7695 24.908 31.7695 25.381C31.7695 25.854 32.1531 26.2376 32.6261 26.2376Z" fill="black"></path>
    <path d="M32.6261 29.6643H38.2794C38.7524 29.6643 39.136 29.2807 39.136 28.8077C39.136 28.3347 38.7524 27.9512 38.2794 27.9512H32.6261C32.1531 27.9512 31.7695 28.3347 31.7695 28.8077C31.7695 29.2807 32.1531 29.6643 32.6261 29.6643Z" fill="black"></path>
    <path d="M32.6261 34.804H43.4189C43.8919 34.804 44.2754 34.4204 44.2754 33.9474C44.2754 33.4744 43.8919 33.0908 43.4189 33.0908H32.6261C32.1531 33.0908 31.7695 33.4744 31.7695 33.9474C31.7695 34.4204 32.1531 34.804 32.6261 34.804Z" fill="black"></path>
    <path d="M32.6261 38.2297H39.9926C40.4656 38.2297 40.8492 37.8462 40.8492 37.3732C40.8492 36.9002 40.4656 36.5166 39.9926 36.5166H32.6261C32.1531 36.5166 31.7695 36.9002 31.7695 37.3732C31.7695 37.8462 32.1531 38.2297 32.6261 38.2297Z" fill="black"></path>
    <path d="M32.6261 43.3694H43.4189C43.8919 43.3694 44.2754 42.9858 44.2754 42.5128C44.2754 42.0398 43.8919 41.6562 43.4189 41.6562H32.6261C32.1531 41.6562 31.7695 42.0398 31.7695 42.5128C31.7695 42.9858 32.1531 43.3694 32.6261 43.3694Z" fill="black"></path>
    <path d="M32.6261 46.7952H39.9926C40.4656 46.7952 40.8492 46.4116 40.8492 45.9386C40.8492 45.4656 40.4656 45.082 39.9926 45.082H32.6261C32.1531 45.082 31.7695 45.4656 31.7695 45.9386C31.7695 46.4116 32.1531 46.7952 32.6261 46.7952Z" fill="black"></path>
    <path d="M58.7578 20.503L57.0691 16.0011C56.9438 15.6668 56.6242 15.4453 56.2672 15.4453C56.2671 15.4453 56.2671 15.4453 56.2671 15.4453C55.9101 15.4453 55.5905 15.6667 55.4651 16.0011L53.7747 20.5076C53.1695 22.1271 52.8408 23.8687 52.8408 25.6607V51.5925C52.8408 53.0094 53.9936 54.1622 55.4105 54.1622H57.1237C58.5406 54.1622 59.6934 53.0094 59.6934 51.5925V25.6607C59.6934 23.8769 59.3674 22.1345 58.7578 20.503ZM54.554 25.6607C54.554 25.1097 54.5901 24.5565 54.66 24.011H57.8737C57.9439 24.558 57.9801 25.1103 57.9801 25.6607V46.7957H54.5539V25.6607H54.554ZM56.2669 18.7412C56.3577 18.9831 55.9381 17.8649 57.1548 21.1072C57.3005 21.4972 57.4271 21.8954 57.5352 22.2979H54.999C55.107 21.8954 55.2336 21.4977 55.3791 21.1082L56.2669 18.7412ZM57.1237 52.4491H55.4105C54.9382 52.4491 54.554 52.0648 54.554 51.5925V48.5088H57.9802V51.5925C57.9802 52.0648 57.596 52.4491 57.1237 52.4491Z" fill="black"></path>
  </g>
  <defs>
    <clipPath id="clip0">
      <rect width="43.8563" height="43.8563" fill="white" transform="translate(15.8369 10.3057)"></rect>
    </clipPath>
  </defs>
</svg>
