<?xml version="1.0" encoding="UTF-8"?>
<svg xmlns="http://www.w3.org/2000/svg" width="75" height="67" viewBox="0 0 75 67" fill="none">
  <path d="M6.65667 5.01845C6.93331 2.48187 9.07558 0.560547 11.6272 0.560547H69.425C72.401 0.560547 74.7182 3.14418 74.3956 6.10265L68.3433 61.5956C68.0667 64.1322 65.9244 66.0535 63.3728 66.0535H5.57496C2.59895 66.0535 0.281779 63.4699 0.604438 60.5114L6.65667 5.01845Z" fill="#FDD303"></path>
  <rect x="47.5107" y="6.65234" width="19.0141" height="19.0141" rx="9.50704" fill="white"></rect>
  <path d="M50.4579 26.7325V25.2392C51.6929 25.2392 52.6979 24.2342 52.6979 22.9992C52.6979 21.7642 51.6929 20.7592 50.4579 20.7592H48.9646C48.5524 20.7592 48.2179 20.4247 48.2179 20.0126C48.2179 19.6004 48.5524 19.2659 48.9646 19.2659H51.2046V20.0126H52.6979V17.7726H50.4579V16.2793H48.9646V17.7726C47.7296 17.7726 46.7246 18.7776 46.7246 20.0126C46.7246 21.2476 47.7296 22.2526 48.9646 22.2526H50.4579C50.87 22.2526 51.2046 22.5871 51.2046 22.9992C51.2046 23.4114 50.87 23.7459 50.4579 23.7459H48.2179V22.9992H46.7246V25.2392H48.9646V26.7325H50.4579Z" fill="black"></path>
  <path d="M57.9245 21.5052C57.9245 16.9767 54.2398 13.292 49.7113 13.292C45.1828 13.292 41.498 16.9767 41.498 21.5052C41.498 26.0337 45.1828 29.7185 49.7113 29.7185C54.2398 29.7185 57.9245 26.0337 57.9245 21.5052ZM42.9914 21.5052C42.9914 17.7996 46.0056 14.7853 49.7113 14.7853C53.4169 14.7853 56.4312 17.7996 56.4312 21.5052C56.4312 25.2109 53.4169 28.2251 49.7113 28.2251C46.0056 28.2251 42.9914 25.2109 42.9914 21.5052Z" fill="black"></path>
  <path d="M60.9119 21.5055C60.9119 15.3299 55.8876 10.3057 49.712 10.3057C43.5364 10.3057 38.5122 15.3299 38.5122 21.5055C38.5122 26.2602 41.4951 30.322 45.6846 31.9438L44.1763 33.452H38.1732L32.9466 39.4253H23.9994L14.8178 49.3715L15.9146 50.3847L24.6527 40.9186H33.6253L38.8519 34.9453H44.7953L47.3033 32.4373C47.9872 32.5882 48.6943 32.6718 49.4186 32.6904L45.6696 36.4387H38.8855L34.4056 42.4119H25.48L14.6191 54.8243V56.5984H57.9253V29.0945C59.7725 27.0965 60.9119 24.4347 60.9119 21.5055ZM40.0055 21.5055C40.0055 16.1535 44.36 11.799 49.712 11.799C55.0641 11.799 59.4186 16.1535 59.4186 21.5055C59.4186 26.8576 55.0641 31.2121 49.712 31.2121C44.36 31.2121 40.0055 26.8576 40.0055 21.5055ZM51.952 32.4799V55.1051H48.9654V35.2545L51.7019 32.518C51.7847 32.503 51.8699 32.4963 51.952 32.4799ZM46.2879 37.932L47.4721 36.7478V55.1051H44.4854V37.932H46.2879ZM25.0723 55.1051H22.0857V48.5592L25.0723 45.1462V55.1051ZM26.5657 43.9052H29.5523V55.1051H26.5657V43.9052ZM31.0456 43.9052H34.0322V55.1051H31.0456V43.9052ZM35.5255 43.4072L38.5122 39.4253V55.1051H35.5255V43.4072ZM40.0055 37.932H42.9921V55.1051H40.0055V37.932ZM20.5924 50.266V55.1051H16.3581L20.5924 50.266ZM53.4453 55.1051V32.0521C54.5272 31.6675 55.5315 31.1232 56.4319 30.4445V55.1051H53.4453Z" fill="black"></path>
  <path d="M19.0988 37.9322H20.5921V34.9455H22.0854V25.9857H20.5921V22.999H19.0988V25.9857H17.6055V34.9455H19.0988V37.9322ZM19.0988 27.479H20.5921V33.4522H19.0988V27.479Z" fill="black"></path>
  <path d="M25.0714 34.1996H26.5648V31.213H28.0581V23.7464H26.5648V20.7598H25.0714V23.7464H23.5781V31.213H25.0714V34.1996ZM25.0714 25.2397H26.5648V29.7197H25.0714V25.2397Z" fill="black"></path>
  <path d="M31.0441 28.9729H32.5374V25.9863H34.0307V20.013H32.5374V17.0264H31.0441V20.013H29.5508V25.9863H31.0441V28.9729ZM31.0441 21.5063H32.5374V24.4929H31.0441V21.5063Z" fill="black"></path>
</svg>
