<?xml version="1.0" encoding="UTF-8"?>
<svg xmlns="http://www.w3.org/2000/svg" width="75" height="67" viewBox="0 0 75 67" fill="none">
  <path d="M6.65667 5.43837C6.93331 2.9018 9.07558 0.980469 11.6272 0.980469H69.425C72.401 0.980469 74.7182 3.5641 74.3956 6.52257L68.3433 62.0155C68.0667 64.5521 65.9244 66.4734 63.3728 66.4734H5.57496C2.59895 66.4734 0.281779 63.8898 0.604438 60.9313L6.65667 5.43837Z" fill="#FDD303"></path>
  <rect x="9.74512" y="41.1816" width="19.0141" height="19.0141" rx="9.50704" fill="white"></rect>
  <path d="M51.6128 41.7314C48.146 41.7314 45.3252 44.5522 45.3252 48.0191C45.3252 51.4859 48.146 54.3067 51.6128 54.3067C55.0797 54.3067 57.9005 51.4859 57.9005 48.0191C57.9005 44.5522 55.0797 41.7314 51.6128 41.7314ZM51.6128 52.7348C49.0121 52.7348 46.8971 50.6198 46.8971 48.0191C46.8971 45.4184 49.0121 43.3034 51.6128 43.3034C54.2136 43.3034 56.3286 45.4184 56.3286 48.0191C56.3286 50.6198 54.2136 52.7348 51.6128 52.7348Z" fill="black"></path>
  <path d="M51.6135 44.875C49.8797 44.875 48.4697 46.285 48.4697 48.0188C48.4697 49.7526 49.8797 51.1626 51.6135 51.1626C53.3474 51.1626 54.7574 49.7526 54.7574 48.0188C54.7574 46.285 53.3474 44.875 51.6135 44.875ZM51.6135 49.5907C50.7466 49.5907 50.0416 48.8857 50.0416 48.0188C50.0416 47.1519 50.7466 46.4469 51.6135 46.4469C52.4805 46.4469 53.1855 47.1519 53.1855 48.0188C53.1855 48.8857 52.4805 49.5907 51.6135 49.5907Z" fill="black"></path>
  <path d="M61.8303 50.9345V45.1066L60.3952 44.5997C60.3465 44.4763 60.2954 44.3529 60.2411 44.2295L60.8982 42.8556L56.7766 38.7341L55.4028 39.3911C55.2802 39.3369 55.1568 39.285 55.0326 39.2371L54.5272 37.8027H48.6994L48.1924 39.2379C48.069 39.2866 47.9457 39.3377 47.8223 39.3919L46.4484 38.7349L42.3269 42.8564L42.9839 44.2303C42.9297 44.3529 42.8778 44.4763 42.8299 44.6005L41.3955 45.1058V50.9337L42.8307 51.4406C42.8794 51.564 42.9305 51.6874 42.9847 51.8108L42.3277 53.1847L46.4492 57.3062L47.823 56.6491C47.9457 56.7034 48.069 56.7553 48.1932 56.8032L48.6986 58.2376H54.5265L55.0334 56.8024C55.1568 56.7537 55.2802 56.7026 55.4036 56.6484L56.7774 57.3054L60.899 53.1839L60.2419 51.81C60.2962 51.6874 60.348 51.564 60.396 51.4398L61.8303 50.9345ZM60.2584 49.8216L59.1644 50.2075L59.041 50.5674C58.938 50.8684 58.8115 51.1718 58.6653 51.4689L58.4979 51.8108L58.9993 52.8593L56.4513 55.4073L55.4028 54.9059L55.0609 55.0733C54.7638 55.2195 54.4604 55.3452 54.1594 55.449L53.7994 55.5724L53.4143 56.6657H49.8107L49.4248 55.5716L49.0649 55.4482C48.7638 55.3452 48.4605 55.2187 48.1634 55.0725L47.8215 54.9051L46.773 55.4066L44.2249 52.8585L44.7264 51.81L44.559 51.4681C44.4128 51.171 44.287 50.8677 44.1833 50.5666L44.0599 50.2067L42.9674 49.8216V46.218L44.0615 45.832L44.1849 45.4721C44.2878 45.1711 44.4144 44.8677 44.5605 44.5706L44.728 44.2287L44.2265 43.1802L46.7746 40.6322L47.823 41.1336L48.1649 40.9662C48.462 40.82 48.7654 40.6943 49.0664 40.5905L49.4264 40.4671L49.8115 39.3746H53.4151L53.801 40.4687L54.161 40.5921C54.462 40.695 54.7654 40.8216 55.0625 40.9678L55.4044 41.1352L56.4528 40.6337L59.0009 43.1818L58.4995 44.2303L58.6669 44.5722C58.8131 44.8693 58.9388 45.1726 59.0426 45.4737L59.1659 45.8336L60.2584 46.2187V49.8216Z" fill="black"></path>
  <path d="M37.482 32.6102C40.005 30.0865 41.3953 26.7312 41.3953 23.1622V22.869C41.3953 15.5015 35.4016 9.50781 28.0341 9.50781C20.6665 9.50781 14.6729 15.5015 14.6729 22.869V23.1622C14.6729 26.7312 16.0632 30.0865 18.5861 32.6102L21.0949 35.1189C21.8714 35.8962 22.3508 36.8889 22.4876 37.961C21.5979 38.2981 20.9605 39.1532 20.9605 40.1601C20.9605 40.766 21.1971 41.3138 21.5735 41.732C21.1963 42.1501 20.9605 42.6979 20.9605 43.3039C20.9605 44.3429 21.6403 45.2169 22.5748 45.5305C22.9002 48.2562 25.2219 50.3775 28.0341 50.3775C30.8462 50.3775 33.1679 48.2562 33.4933 45.5305C34.4278 45.2169 35.1077 44.3429 35.1077 43.3039C35.1077 42.6979 34.8711 42.1501 34.4946 41.732C34.8719 41.3138 35.1077 40.766 35.1077 40.1601C35.1077 39.1532 34.4703 38.2981 33.5806 37.961C33.7165 36.8889 34.196 35.8962 34.9733 35.1189L37.482 32.6102ZM32.7498 39.3741C33.1829 39.3741 33.5358 39.727 33.5358 40.1601C33.5358 40.5931 33.1829 40.946 32.7498 40.946H23.3184C22.8853 40.946 22.5324 40.5931 22.5324 40.1601C22.5324 39.727 22.8853 39.3741 23.3184 39.3741H32.7498ZM28.0341 48.8056C26.1368 48.8056 24.5492 47.4529 24.1837 45.6617H31.8845C31.519 47.4529 29.9314 48.8056 28.0341 48.8056ZM32.7498 44.0898H23.3184C22.8853 44.0898 22.5324 43.7369 22.5324 43.3039C22.5324 42.8708 22.8853 42.5179 23.3184 42.5179H32.7498C33.1829 42.5179 33.5358 42.8708 33.5358 43.3039C33.5358 43.7369 33.1829 44.0898 32.7498 44.0898ZM32.0165 37.8022H24.0517C23.8795 36.3702 23.2429 35.0435 22.207 34.0076L19.6982 31.4988C17.4716 29.2714 16.2448 26.3107 16.2448 23.1622V22.869C16.2448 16.3684 21.5335 11.0797 28.0341 11.0797C34.5347 11.0797 39.8234 16.3684 39.8234 22.869V23.1622C39.8234 26.3115 38.5965 29.2714 36.3699 31.4988L33.8612 34.0076C32.8253 35.0435 32.1886 36.3702 32.0165 37.8022Z" fill="black"></path>
  <path d="M47.1973 28.3706L51.6128 37.2015L56.0283 28.3706H52.3987V19.7251C52.3987 18.4251 51.3408 17.3672 50.0409 17.3672H47.683V18.9391H50.0409C50.4739 18.9391 50.8268 19.292 50.8268 19.7251V28.3706H47.1973ZM51.6128 33.6868L49.7406 29.9425H53.4849L51.6128 33.6868Z" fill="black"></path>
  <path d="M44.5391 17.3672H46.111V18.9391H44.5391V17.3672Z" fill="black"></path>
  <path d="M22.2324 50.3779L17.8169 41.5469L13.4014 50.3779H17.0309V54.3076C17.0309 55.6076 18.0888 56.6655 19.3888 56.6655H21.7466V55.0936H19.3888C18.9557 55.0936 18.6028 54.7407 18.6028 54.3076V50.3779H22.2324ZM17.8169 45.0617L19.689 48.806H15.9447L17.8169 45.0617Z" fill="black"></path>
  <path d="M26.4629 55.0928H28.0348V56.6647H26.4629V55.0928Z" fill="black"></path>
  <path d="M23.3184 55.0928H24.8903V56.6647H23.3184V55.0928Z" fill="black"></path>
  <path d="M29.6055 55.0928H31.1774V56.6647H29.6055V55.0928Z" fill="black"></path>
  <path d="M28.0347 16.582C24.5679 16.582 21.7471 19.4028 21.7471 22.8697C21.7471 26.3365 24.5679 29.1573 28.0347 29.1573C31.5016 29.1573 34.3223 26.3365 34.3223 22.8697C34.3223 19.4028 31.5016 16.582 28.0347 16.582ZM28.0347 27.5854C25.434 27.5854 23.319 25.4704 23.319 22.8697C23.319 20.2689 25.434 18.1539 28.0347 18.1539C30.6354 18.1539 32.7504 20.2689 32.7504 22.8697C32.7504 25.4704 30.6354 27.5854 28.0347 27.5854Z" fill="black"></path>
  <path d="M28.0335 19.7246C26.2997 19.7246 24.8896 21.1346 24.8896 22.8684C24.8896 24.6022 26.2997 26.0122 28.0335 26.0122C29.7673 26.0122 31.1773 24.6022 31.1773 22.8684C31.1773 21.1346 29.7673 19.7246 28.0335 19.7246ZM28.0335 24.4403C27.1666 24.4403 26.4616 23.7353 26.4616 22.8684C26.4616 22.0015 27.1666 21.2965 28.0335 21.2965C28.9004 21.2965 29.6054 22.0015 29.6054 22.8684C29.6054 23.7353 28.9004 24.4403 28.0335 24.4403Z" fill="black"></path>
  <path d="M36.664 26.6604C36.7182 26.5378 36.7701 26.4144 36.818 26.2902L38.2532 25.7841V19.9562L36.818 19.4493C36.7693 19.3259 36.7182 19.2025 36.664 19.0791L37.321 17.7052L33.1995 13.5845L31.8256 14.2415C31.703 14.1873 31.5796 14.1354 31.4555 14.0875L30.9501 12.6523H25.1222L24.6153 14.0875C24.4919 14.1362 24.3685 14.1873 24.2451 14.2415L22.872 13.5845L18.7505 17.706L19.4076 19.0799C19.3533 19.2025 19.3015 19.3259 19.2535 19.4501L17.8184 19.9554V25.7833L19.2535 26.2902C19.3022 26.4136 19.3533 26.537 19.4076 26.6604L18.7505 28.0335L22.872 32.155L24.2459 31.498C24.3685 31.5522 24.4919 31.6041 24.6161 31.652L25.1215 33.0872H30.9493L31.4562 31.652C31.5796 31.6033 31.703 31.5522 31.8264 31.498L33.2003 32.155L37.3218 28.0335L36.664 26.6604ZM35.4646 25.417C35.3617 25.7181 35.2351 26.0214 35.0889 26.3185L34.9215 26.6604L35.423 27.7089L32.8749 30.2569L31.8264 29.7555L31.4845 29.9229C31.1875 30.0691 30.8841 30.1949 30.5831 30.2986L30.2231 30.422L29.8372 31.5153H26.2336L25.8477 30.4212L25.4877 30.2978C25.1867 30.1949 24.8833 30.0683 24.5862 29.9221L24.2443 29.7547L23.1959 30.2562L20.6478 27.7081L21.1492 26.6596L20.9818 26.3177C20.8356 26.0206 20.7099 25.7173 20.6061 25.4163L20.4827 25.0563L19.3903 24.6712V21.0676L20.4843 20.6817L20.6077 20.3217C20.7107 20.0207 20.8372 19.7173 20.9834 19.4202L21.1508 19.0783L20.6494 18.0298L23.1974 15.4818L24.2459 15.9832L24.5878 15.8158C24.8849 15.6696 25.1883 15.5439 25.4893 15.4401L25.8492 15.3167L26.2344 14.2243H29.838L30.2239 15.3183L30.5838 15.4417C30.8849 15.5447 31.1882 15.6712 31.4853 15.8174L31.8272 15.9848L32.8757 15.4834L35.4237 18.0314L34.9223 19.0799L35.0897 19.4218C35.2359 19.7189 35.3617 20.0222 35.4654 20.3233L35.5888 20.6832L36.6813 21.0683V24.672L35.5872 25.0579L35.4646 25.417Z" fill="black"></path>
</svg>
