<?xml version="1.0" encoding="UTF-8"?>
<svg xmlns="http://www.w3.org/2000/svg" width="94" height="96" viewBox="0 0 94 96" fill="none">
  <ellipse cx="47" cy="48.0605" rx="47" ry="47.5" fill="black"></ellipse>
  <path d="M64.4474 52.4463H63.6889V31.0564C63.6889 30.7492 63.4399 30.5002 63.1327 30.5002C62.8255 30.5002 62.5766 30.7492 62.5766 31.0564V52.4463H56.2474V25.4783H62.5766V28.6863C62.5766 28.9935 62.8255 29.2424 63.1327 29.2424C63.4399 29.2424 63.6889 28.9935 63.6889 28.6863V25.4459C63.6889 24.8505 63.2044 24.366 62.609 24.366H56.215C55.6196 24.366 55.1351 24.8505 55.1351 25.4459V27.6568H53.4261C53.4861 27.5404 53.5438 27.4223 53.5986 27.3024C54.5205 25.2891 54.6031 23.0372 53.8312 20.9617C53.0596 18.8863 51.5257 17.2355 49.5124 16.3136C47.4992 15.3917 45.2474 15.3091 43.172 16.0809C41.484 16.7086 40.0766 17.8378 39.1018 19.3463C38.1598 20.8042 37.6907 22.5572 37.7809 24.2821C37.7964 24.5776 38.0405 24.8092 38.3363 24.8092C38.3467 24.8092 38.3568 24.8089 38.3676 24.8085C38.6692 24.8022 38.9118 24.5557 38.9118 24.2525C38.9118 24.1938 38.9027 24.1371 38.8858 24.0839C38.8394 22.6363 39.2455 21.1735 40.036 19.95C40.8797 18.6445 42.0982 17.667 43.5597 17.1235C45.3566 16.4553 47.3062 16.5267 49.0494 17.325C50.7926 18.1232 52.1206 19.5524 52.7888 21.3495C53.4571 23.1465 53.3855 25.0961 52.5874 26.8394C51.7893 28.5826 50.3601 29.9106 48.5631 30.5789C47.4386 30.9971 46.2204 31.128 45.0409 30.9574C44.7369 30.9133 44.4549 31.1243 44.4109 31.4283C44.3669 31.7323 44.5777 32.0143 44.8818 32.0583C45.2704 32.1145 45.6623 32.1424 46.0545 32.1424C46.6042 32.1424 47.1536 32.0855 47.6937 31.9769V33.4624H42.0699C41.4744 33.4624 40.99 33.9469 40.99 34.5423V37.8632H38.176L39.3604 34.568C39.5317 34.0918 39.46 33.5604 39.169 33.1465C38.8779 32.7326 38.4021 32.4855 37.8962 32.4855H37.1625L37.9351 31.6153H42.0016C42.9321 31.6153 43.6892 30.8582 43.6892 29.9276C43.6892 28.997 42.9321 28.2399 42.0016 28.2399H40.2738C40.2964 28.1213 40.3087 27.9991 40.3087 27.8741C40.3087 26.7971 39.4326 25.9209 38.3556 25.9209C37.472 25.9209 36.7238 26.5111 36.4837 27.3179H36.2602C35.6489 27.3179 35.0569 27.572 34.636 28.0149L32.6137 30.1422C31.818 30.9794 31.3797 32.0764 31.3797 33.2314V34.8839L28.4032 41.8295C28.2925 42.0877 28.3188 42.3819 28.4735 42.6165C28.5641 42.754 28.6915 42.8578 28.8375 42.9212C28.837 42.9338 28.8355 42.9462 28.8355 42.9588V52.4463H27.5561C27.2489 52.4463 27 52.6952 27 53.0024C27 53.3097 27.2489 53.5586 27.5561 53.5586H64.4474C64.7546 53.5586 65.0035 53.3097 65.0035 53.0024C65.0035 52.6952 64.7545 52.4463 64.4474 52.4463ZM48.4315 34.5748V37.7773C48.4315 38.0845 48.6804 38.3334 48.9876 38.3334C49.2948 38.3334 49.5437 38.0845 49.5437 37.7773V34.5423C49.5437 34.0665 49.234 33.6624 48.8059 33.5189V31.6715C48.8541 31.6546 48.9028 31.6392 48.9507 31.6213C50.487 31.05 51.7901 30.0609 52.7376 28.769H55.1351V52.4463H49.5438V40.1473C49.5438 39.8401 49.2949 39.5912 48.9877 39.5912C48.6805 39.5912 48.4315 39.8401 48.4315 40.1473V52.4463H43.1517V38.9432C43.1517 38.3581 42.6835 37.8812 42.1023 37.8649V34.5748H48.4315ZM38.3557 27.0334C38.8193 27.0334 39.1965 27.4106 39.1965 27.8742C39.1965 28.3378 38.8193 28.715 38.3557 28.715C37.8921 28.715 37.515 28.3378 37.515 27.8742C37.515 27.4106 37.8921 27.0334 38.3557 27.0334ZM32.447 35.2173C32.4767 35.148 32.492 35.0736 32.492 34.9983V33.2316C32.492 32.3632 32.8215 31.5383 33.4198 30.9088L35.4421 28.7815C35.6541 28.5584 35.9524 28.4304 36.2602 28.4304H36.4837C36.7239 29.2372 37.472 29.8274 38.3556 29.8274C38.8424 29.8274 39.2877 29.648 39.6301 29.3524H42.0015C42.3187 29.3524 42.5768 29.6105 42.5768 29.9278C42.5768 30.2451 42.3188 30.5032 42.0015 30.5032H37.908C37.6074 30.5032 37.3206 30.6321 37.1213 30.8569L35.9531 32.1727C35.7296 32.4245 35.6744 32.7856 35.8125 33.0926C35.9505 33.3996 36.2572 33.5981 36.5939 33.5981H37.8961C38.0426 33.5981 38.1748 33.6668 38.2592 33.7866C38.3434 33.9063 38.3633 34.0541 38.3137 34.192L36.994 37.8634H36.198L36.824 35.8596C36.9157 35.5659 36.8616 35.2426 36.6794 34.9947C36.4971 34.7468 36.2046 34.5988 35.8969 34.5988H34.7751C34.4031 34.5988 34.0695 34.8059 33.9045 35.1394L30.5707 41.8794H29.9155H29.5923L32.447 35.2173ZM31.8116 41.8791L34.8626 35.7109H35.705L35.0233 37.8935C35.0007 37.9656 34.9896 38.0397 34.9871 38.1139C34.7495 38.3122 34.5979 38.6103 34.5979 38.9432V41.8791H31.8116ZM29.9479 42.9915H36.2771V46.0354C36.2771 46.3426 36.526 46.5915 36.8332 46.5915C37.1404 46.5915 37.3894 46.3426 37.3894 46.0354V42.9591C37.3894 42.3637 36.9049 41.8792 36.3095 41.8792H35.7101V38.9757H42.0393V52.4463H37.3894V48.4056C37.3894 48.0984 37.1404 47.8494 36.8332 47.8494C36.526 47.8494 36.2771 48.0984 36.2771 48.4056V52.4463H29.9479V42.9915Z" fill="#FDD303"></path>
</svg>
