<?xml version="1.0" encoding="UTF-8"?>
<svg xmlns="http://www.w3.org/2000/svg" width="94" height="95" viewBox="0 0 94 95" fill="none">
  <circle cx="47" cy="47.5605" r="47" fill="black"></circle>
  <path d="M64 45.9997V28.873C64 27.1931 62.598 25.8262 60.875 25.8262H59.625V24.6074C59.625 23.5993 58.7839 22.7793 57.75 22.7793C56.7161 22.7793 55.875 23.5993 55.875 24.6074V25.8262H52.75V24.6074C52.75 23.5993 51.9089 22.7793 50.875 22.7793C49.8411 22.7793 49 23.5993 49 24.6074V25.8262H45.25V24.6074C45.25 23.5993 44.4089 22.7793 43.375 22.7793C42.3411 22.7793 41.5 23.5993 41.5 24.6074V25.8262H38.375V24.6074C38.375 23.5993 37.5339 22.7793 36.5 22.7793C35.4661 22.7793 34.625 23.5993 34.625 24.6074V25.8262H33.375C31.652 25.8262 30.25 27.1931 30.25 28.873V53.248C30.25 54.928 31.652 56.2949 33.375 56.2949H54.3897C55.6888 58.477 58.106 59.9512 60.875 59.9512C65.0107 59.9512 68.375 56.671 68.375 52.6387C68.375 49.6945 66.5777 47.1579 64 45.9997ZM57.125 24.6074C57.125 24.2712 57.4051 23.998 57.75 23.998C58.0949 23.998 58.375 24.2712 58.375 24.6074V28.2637C58.375 28.5999 58.0949 28.873 57.75 28.873C57.4051 28.873 57.125 28.5999 57.125 28.2637V24.6074ZM50.25 24.6074C50.25 24.2712 50.5301 23.998 50.875 23.998C51.2199 23.998 51.5 24.2712 51.5 24.6074V28.2637C51.5 28.5999 51.2199 28.873 50.875 28.873C50.5301 28.873 50.25 28.5999 50.25 28.2637V24.6074ZM42.75 24.6074C42.75 24.2712 43.0302 23.998 43.375 23.998C43.7198 23.998 44 24.2712 44 24.6074V28.2637C44 28.5999 43.7198 28.873 43.375 28.873C43.0302 28.873 42.75 28.5999 42.75 28.2637V24.6074ZM35.875 24.6074C35.875 24.2712 36.1551 23.998 36.5 23.998C36.8449 23.998 37.125 24.2712 37.125 24.6074V28.2637C37.125 28.5999 36.8449 28.873 36.5 28.873C36.1551 28.873 35.875 28.5999 35.875 28.2637V24.6074ZM33.375 27.0449H34.625V28.2637C34.625 29.2718 35.4661 30.0918 36.5 30.0918C37.5339 30.0918 38.375 29.2718 38.375 28.2637V27.0449H41.5V28.2637C41.5 29.2718 42.3411 30.0918 43.375 30.0918C44.4089 30.0918 45.25 29.2718 45.25 28.2637V27.0449H49V28.2637C49 29.2718 49.8411 30.0918 50.875 30.0918C51.9089 30.0918 52.75 29.2718 52.75 28.2637V27.0449H55.875V28.2637C55.875 29.2718 56.7161 30.0918 57.75 30.0918C58.7839 30.0918 59.625 29.2718 59.625 28.2637V27.0449H60.875C61.9089 27.0449 62.75 27.865 62.75 28.873V31.9199H31.5V28.873C31.5 27.865 32.3411 27.0449 33.375 27.0449ZM33.375 55.0762C32.3411 55.0762 31.5 54.2561 31.5 53.248V33.1387H62.75V45.5668C62.1495 45.4153 61.5235 45.3262 60.875 45.3262C60.4482 45.3262 60.0324 45.3692 59.625 45.4362V42.2793C59.625 41.9425 59.3455 41.6699 59 41.6699H55.25C54.9045 41.6699 54.625 41.9425 54.625 42.2793V45.9355C54.625 46.2724 54.9045 46.5449 55.25 46.5449H56.738C54.7136 47.8557 53.375 50.0966 53.375 52.6387C53.375 53.4943 53.5343 54.3124 53.8125 55.0762H33.375ZM58.375 45.3262H55.875V42.8887H58.375V45.3262ZM60.875 58.7324C57.429 58.7324 54.625 55.9986 54.625 52.6387C54.625 49.2788 57.429 46.5449 60.875 46.5449C64.321 46.5449 67.125 49.2788 67.125 52.6387C67.125 55.9986 64.321 58.7324 60.875 58.7324Z" fill="#FDD303"></path>
  <path d="M61.5 51.589V47.7637H60.25V51.589C59.878 51.8001 59.625 52.1887 59.625 52.6387C59.625 52.7004 59.6345 52.7595 59.6436 52.8188L57.3594 54.6001L58.1406 55.5522L60.4229 53.7721C60.5635 53.8254 60.7151 53.8574 60.875 53.8574C61.5653 53.8574 62.125 53.3118 62.125 52.6387C62.125 52.1887 61.8721 51.8001 61.5 51.589Z" fill="#FDD303"></path>
  <path d="M38.375 34.9668H34.625C34.2795 34.9668 34 35.2394 34 35.5762V39.2324C34 39.5692 34.2795 39.8418 34.625 39.8418H38.375C38.7205 39.8418 39 39.5692 39 39.2324V35.5762C39 35.2394 38.7205 34.9668 38.375 34.9668ZM37.75 38.623H35.25V36.1855H37.75V38.623Z" fill="#FDD303"></path>
  <path d="M45.25 34.9668H41.5C41.1545 34.9668 40.875 35.2394 40.875 35.5762V39.2324C40.875 39.5692 41.1545 39.8418 41.5 39.8418H45.25C45.5955 39.8418 45.875 39.5692 45.875 39.2324V35.5762C45.875 35.2394 45.5955 34.9668 45.25 34.9668ZM44.625 38.623H42.125V36.1855H44.625V38.623Z" fill="#FDD303"></path>
  <path d="M52.125 34.9668H48.375C48.0295 34.9668 47.75 35.2394 47.75 35.5762V39.2324C47.75 39.5692 48.0295 39.8418 48.375 39.8418H52.125C52.4705 39.8418 52.75 39.5692 52.75 39.2324V35.5762C52.75 35.2394 52.4705 34.9668 52.125 34.9668ZM51.5 38.623H49V36.1855H51.5V38.623Z" fill="#FDD303"></path>
  <path d="M55.25 39.8418H59C59.3455 39.8418 59.625 39.5692 59.625 39.2324V35.5762C59.625 35.2394 59.3455 34.9668 59 34.9668H55.25C54.9045 34.9668 54.625 35.2394 54.625 35.5762V39.2324C54.625 39.5692 54.9045 39.8418 55.25 39.8418ZM55.875 36.1855H58.375V38.623H55.875V36.1855Z" fill="#FDD303"></path>
  <path d="M38.375 41.6699H34.625C34.2795 41.6699 34 41.9425 34 42.2793V45.9355C34 46.2724 34.2795 46.5449 34.625 46.5449H38.375C38.7205 46.5449 39 46.2724 39 45.9355V42.2793C39 41.9425 38.7205 41.6699 38.375 41.6699ZM37.75 45.3262H35.25V42.8887H37.75V45.3262Z" fill="#FDD303"></path>
  <path d="M45.25 41.6699H41.5C41.1545 41.6699 40.875 41.9425 40.875 42.2793V45.9355C40.875 46.2724 41.1545 46.5449 41.5 46.5449H45.25C45.5955 46.5449 45.875 46.2724 45.875 45.9355V42.2793C45.875 41.9425 45.5955 41.6699 45.25 41.6699ZM44.625 45.3262H42.125V42.8887H44.625V45.3262Z" fill="#FDD303"></path>
  <path d="M52.125 41.6699H48.375C48.0295 41.6699 47.75 41.9425 47.75 42.2793V45.9355C47.75 46.2724 48.0295 46.5449 48.375 46.5449H52.125C52.4705 46.5449 52.75 46.2724 52.75 45.9355V42.2793C52.75 41.9425 52.4705 41.6699 52.125 41.6699ZM51.5 45.3262H49V42.8887H51.5V45.3262Z" fill="#FDD303"></path>
  <path d="M38.375 48.373H34.625C34.2795 48.373 34 48.6456 34 48.9824V52.6387C34 52.9755 34.2795 53.248 34.625 53.248H38.375C38.7205 53.248 39 52.9755 39 52.6387V48.9824C39 48.6456 38.7205 48.373 38.375 48.373ZM37.75 52.0293H35.25V49.5918H37.75V52.0293Z" fill="#FDD303"></path>
  <path d="M45.25 48.373H41.5C41.1545 48.373 40.875 48.6456 40.875 48.9824V52.6387C40.875 52.9755 41.1545 53.248 41.5 53.248H45.25C45.5955 53.248 45.875 52.9755 45.875 52.6387V48.9824C45.875 48.6456 45.5955 48.373 45.25 48.373ZM44.625 52.0293H42.125V49.5918H44.625V52.0293Z" fill="#FDD303"></path>
  <path d="M52.125 48.373H48.375C48.0295 48.373 47.75 48.6456 47.75 48.9824V52.6387C47.75 52.9755 48.0295 53.248 48.375 53.248H52.125C52.4705 53.248 52.75 52.9755 52.75 52.6387V48.9824C52.75 48.6456 52.4705 48.373 52.125 48.373ZM51.5 52.0293H49V49.5918H51.5V52.0293Z" fill="#FDD303"></path>
</svg>
