<?xml version="1.0" encoding="UTF-8"?>
<svg xmlns="http://www.w3.org/2000/svg" width="95" height="96" viewBox="0 0 95 96" fill="none">
  <circle cx="47.5" cy="48.0605" r="47.5" fill="black"></circle>
  <g clip-path="url(#clip0)">
    <path d="M45.9852 61.5604C37.7414 61.5604 31.0344 54.993 31.0344 46.9209V46.7085H30.7074C28.165 46.7085 26.0967 44.6832 26.0967 42.1938V40.1268C26.0967 37.6374 28.165 35.6122 30.7074 35.6122H31.0344V28.9582C31.0344 26.4069 32.2408 23.9814 34.279 22.4005C34.2104 22.0654 34.1748 21.7211 34.1748 21.3712C34.1748 20.4418 34.6803 19.4867 35.5271 18.8172C35.5357 18.8108 35.5442 18.8041 35.553 18.7981L36.066 18.4396C36.0842 18.4266 36.1031 18.4152 36.1227 18.4047C36.2027 18.3621 36.293 18.3089 36.3968 18.2478C36.8798 17.9642 37.6099 17.5351 38.8167 17.1744C40.489 16.6383 42.2446 16.3259 44.1839 16.2194C46.6966 16.0808 49.2399 16.2402 51.5374 16.679C53.0343 16.9295 54.28 17.0014 55.2281 16.8923C56.613 16.732 57.1587 16.0855 57.2932 15.8914C57.4527 15.6607 57.4861 15.2342 57.4853 15.1031C57.4837 14.8604 57.6483 14.6456 57.887 14.5804C58.1261 14.5154 58.3795 14.6135 58.5066 14.8221C58.5364 14.8711 59.2331 16.0384 58.8742 17.4578C58.7789 17.8349 58.6595 18.1516 58.5356 18.4135C58.858 18.3711 59.1971 18.3081 59.4698 18.2149C60.2705 17.9418 60.5531 17.8185 60.5558 17.8172C60.7575 17.7288 60.9944 17.7668 61.1558 17.914C61.3175 18.0617 61.3738 18.2894 61.2977 18.4925C61.2426 18.6399 60.7311 19.9496 59.7578 20.5707C59.7454 20.5784 59.7331 20.5862 59.7206 20.5939C59.9487 20.8603 60.1461 21.1336 60.3103 21.411C60.5624 21.7924 60.723 22.1192 60.9217 22.538C62.6149 26.1036 61.2034 29.8485 60.9358 30.493V35.6113H61.2927C63.8351 35.6113 65.9034 37.6366 65.9034 40.126V42.193C65.9034 44.6824 63.8351 46.7076 61.2927 46.7076H60.9358V46.92C60.936 54.993 54.2293 61.5604 45.9852 61.5604ZM43.0331 60.1743C43.9846 60.3772 44.9725 60.4842 45.9852 60.4842C46.7782 60.4842 47.5557 60.4185 48.3129 60.2927C48.3096 60.2692 48.308 60.2451 48.308 60.2208V59.3443C48.308 59.0471 48.554 58.8063 48.8575 58.8063C49.161 58.8063 49.4069 59.0471 49.4069 59.3443V60.0656C50.6599 59.7527 51.8451 59.272 52.9361 58.6498C52.6286 58.6666 52.357 58.4196 52.357 58.1127V57.2362C52.357 56.939 52.6029 56.6982 52.9064 56.6982C53.2099 56.6982 53.4559 56.939 53.4559 57.2362V58.1127C53.4559 58.2123 53.4282 58.3057 53.3798 58.3858C55.2851 57.2035 56.8771 55.5783 58.0035 53.6598C57.9696 53.5899 57.9507 53.5118 57.9507 53.4293V52.5528C57.9507 52.2556 58.1967 52.0148 58.5002 52.0148C58.6063 52.0148 58.7057 52.0445 58.7896 52.0955C59.4646 50.5003 59.8373 48.7524 59.8373 46.9209V42.3608H58.8639C58.7171 42.3608 58.5762 42.3031 58.4734 42.2011C58.3701 42.0989 58.3129 41.9605 58.3145 41.8168C58.3153 41.7544 58.3811 35.5584 57.8912 33.6401C57.4488 31.9065 56.1851 31.2146 56.1316 31.186C56.0007 31.116 55.9029 30.9962 55.8633 30.8554C55.8237 30.7145 55.8431 30.5632 55.9191 30.4377C55.9264 30.4257 56.6734 29.1728 56.7064 27.9718C56.7112 27.7936 55.9965 27.3714 55.0279 27.0806C53.7706 26.8013 52.7831 26.8179 52.7611 26.8181L41.3187 26.8179C39.6813 26.8179 38.264 26.5448 37.1062 26.0064C36.8952 25.9082 36.693 25.7961 36.5005 25.6715C35.9875 26.2534 35.2623 27.2401 35.2642 27.9845C35.2673 29.1732 36.0385 30.4171 36.0464 30.4293C36.1258 30.5561 36.1484 30.7095 36.1086 30.8529C36.0686 30.9962 35.9702 31.1173 35.8361 31.1871C35.7853 31.2142 34.5221 31.906 34.0794 33.6397C33.5895 35.5586 33.6555 41.754 33.6564 41.8164C33.6579 41.9601 33.601 42.0985 33.4977 42.2007C33.3944 42.3029 33.2537 42.3604 33.1069 42.3604H32.1335V46.9204C32.1335 48.6394 32.4619 50.2853 33.0603 51.8001C33.1605 51.669 33.3205 51.584 33.5005 51.584C33.804 51.584 34.05 51.8248 34.05 52.122V52.9985C34.05 53.1732 33.9651 53.3282 33.8335 53.4265C34.4761 54.5727 35.2827 55.6185 36.2227 56.5336C36.2477 56.2594 36.4833 56.0444 36.7699 56.0444C37.0735 56.0444 37.3194 56.2852 37.3194 56.5824V57.4589C37.3194 57.4708 37.3189 57.4822 37.3183 57.4936C38.6721 58.5597 40.2347 59.3824 41.9347 59.8924V59.5593C41.9347 59.2621 42.1806 59.0213 42.4841 59.0213C42.7877 59.0213 43.0336 59.2621 43.0336 59.5593V60.1743H43.0331ZM60.9661 45.6323H61.2929C63.2296 45.6323 64.8047 44.0897 64.8047 42.1936V40.1266C64.8047 38.2303 63.2293 36.688 61.2929 36.688H60.9661V45.6323ZM30.7074 36.6877C28.7709 36.6877 27.1956 38.2303 27.1956 40.1264V42.1934C27.1956 44.0897 28.7709 45.632 30.7074 45.632H31.0344V36.6875H30.7074V36.6877ZM59.4167 41.2846H59.8371V30.4681C59.3569 29.4504 58.618 28.7166 57.7954 28.1868C57.7274 29.124 57.3576 30.0205 57.1044 30.5372C57.6595 30.9617 58.569 31.8578 58.9573 33.3786C59.3964 35.0996 59.4219 39.6926 59.4167 41.2846ZM32.1333 41.2846H32.5537C32.5487 39.6926 32.574 35.0996 33.0133 33.3789C33.4003 31.863 34.3047 30.9678 34.8603 30.5415C34.5807 29.9869 34.168 28.9981 34.1654 27.9871C34.1625 26.8452 35.0924 25.6192 35.6548 24.9827C35.6442 24.9719 35.6339 24.9612 35.6234 24.9506C35.215 24.5348 34.8792 24.0491 34.6335 23.5135C33.0561 24.8888 32.1331 26.8753 32.1331 28.9582V41.2846H32.1333ZM54.9352 25.9377C56.6174 26.2579 58.8705 27.055 60.2643 29.0316C60.3421 28.7424 60.4195 28.4069 60.4835 28.0359C59.8386 27.4209 57.5096 25.4081 54.0444 24.763C51.6223 24.3119 48.7603 24.4869 45.9935 24.6556C43.9362 24.781 41.8088 24.911 39.9242 24.7709C38.097 24.6349 36.8302 24.1679 35.9638 23.6459C36.0803 23.82 36.2102 23.9844 36.3521 24.1382C36.4598 24.2531 36.5743 24.3614 36.6952 24.4628C36.7444 24.4879 36.7908 24.5209 36.8319 24.5613C36.844 24.5734 36.8554 24.5854 36.8662 24.5983C37.0763 24.7554 37.3029 24.8923 37.5438 25.0059C38.5574 25.4839 39.8251 25.7262 41.3119 25.7262H52.7339C52.8488 25.7227 53.6027 25.7156 54.6229 25.8826C54.6681 25.8828 54.7136 25.8861 54.7596 25.8962C54.8101 25.9078 54.8695 25.9216 54.9352 25.9377ZM50.3651 23.4001C51.7113 23.4001 53.0233 23.4778 54.2497 23.7061C57.2949 24.2732 59.4982 25.7731 60.6268 26.7081C60.6446 26.2762 60.6344 25.8217 60.5832 25.356C60.3303 25.1473 58.1435 23.37 56.2033 22.5873C54.1877 21.7745 50.9594 22.025 50.9267 22.0269C50.7412 22.0418 50.5645 21.9658 50.4502 21.8244C50.3359 21.6828 50.3018 21.4949 50.3592 21.3237L50.4946 20.9184L47.3096 21.8967C47.1146 21.9565 46.9023 21.906 46.7577 21.7648C46.6131 21.6241 46.5601 21.4162 46.6199 21.2253L46.9568 20.1525C45.2588 21.2408 42.2641 22.8619 39.7971 22.5998C37.3974 22.3471 36.1165 21.2615 35.5029 20.5065C35.3552 20.7897 35.2737 21.0871 35.2737 21.3714C35.2737 21.422 35.2746 21.4726 35.2766 21.5227C35.4548 21.8606 36.4695 23.4352 40.0075 23.6982C41.8162 23.8331 43.8123 23.7108 45.9252 23.5819C47.4008 23.4916 48.903 23.4001 50.3651 23.4001ZM52.1238 20.9111C53.3486 20.9111 55.2066 21.0215 56.6217 21.5922C57.9294 22.1197 59.2947 23.0276 60.2155 23.7009C60.1334 23.4636 60.0373 23.2271 59.9259 22.9919C59.9259 22.9919 59.9259 22.9919 59.9257 22.9919C59.7382 22.5972 59.5993 22.314 59.3813 21.9858C59.376 21.9776 59.3705 21.9692 59.3657 21.9609C59.1406 21.5778 58.8327 21.1993 58.451 20.8358C58.3204 20.7118 58.2613 20.5326 58.2925 20.357C58.3241 20.1818 58.4419 20.0329 58.6077 19.9595C58.8138 19.8683 58.9991 19.7706 59.1584 19.669C59.3017 19.5775 59.4362 19.4527 59.5589 19.3124C58.6597 19.55 57.516 19.5743 57.4631 19.5754C57.4593 19.5754 57.456 19.5754 57.4525 19.5754C57.225 19.5754 57.0204 19.4379 56.9391 19.2293C56.8565 19.0174 56.9187 18.7772 57.0943 18.6294C57.094 18.6296 57.5525 18.2091 57.8077 17.1992C57.8343 17.0944 57.8523 16.9908 57.8635 16.8897C57.4387 17.2994 56.6637 17.8092 55.3574 17.9605C54.3049 18.0823 52.9534 18.0072 51.3401 17.7372C49.1181 17.313 46.6696 17.1609 44.2459 17.2934C42.4006 17.395 40.7343 17.6911 39.1521 18.1992C39.1442 18.2018 39.1361 18.2039 39.1279 18.2063C38.0598 18.5256 37.3994 18.9136 36.9622 19.1704C36.8565 19.2324 36.7627 19.2874 36.6785 19.3331L36.2207 19.6531C36.6016 20.1992 37.6343 21.2894 39.9147 21.5296C43.0646 21.8606 47.5711 18.4131 47.6162 18.3778C47.8054 18.2321 48.0691 18.2241 48.2669 18.3565C48.4652 18.4897 48.5522 18.7335 48.4816 18.9586L47.9775 20.5634L51.1849 19.5782C51.3812 19.5179 51.5954 19.5702 51.7401 19.7135C51.8847 19.8569 51.9354 20.0675 51.8715 20.2588L51.6517 20.9163C51.7946 20.9133 51.953 20.9111 52.1238 20.9111ZM46.11 59.5115C45.8065 59.5115 45.5606 59.2707 45.5606 58.9735V58.097C45.5606 57.7998 45.8065 57.559 46.11 57.559C46.4135 57.559 46.6595 57.7998 46.6595 58.097V58.9735C46.6595 59.2707 46.4135 59.5115 46.11 59.5115ZM40.6327 58.4355C40.3292 58.4355 40.0833 58.1947 40.0833 57.8975V57.021C40.0833 56.7238 40.3292 56.483 40.6327 56.483C40.9363 56.483 41.1822 56.7238 41.1822 57.021V57.8975C41.1822 58.1947 40.936 58.4355 40.6327 58.4355ZM44.3518 56.4987C44.0483 56.4987 43.8024 56.2579 43.8024 55.9607V55.0842C43.8024 54.787 44.0483 54.5462 44.3518 54.5462C44.6553 54.5462 44.9013 54.787 44.9013 55.0842V55.9607C44.9013 56.2579 44.6553 56.4987 44.3518 56.4987ZM48.6375 56.0604C48.334 56.0604 48.088 55.8195 48.088 55.5224V54.6459C48.088 54.3487 48.334 54.1079 48.6375 54.1079C48.941 54.1079 49.1869 54.3487 49.1869 54.6459V55.5224C49.1869 55.8195 48.941 56.0604 48.6375 56.0604ZM54.7251 55.7046C54.4216 55.7046 54.1756 55.4638 54.1756 55.1666V54.2901C54.1756 53.9929 54.4216 53.7521 54.7251 53.7521C55.0286 53.7521 55.2745 53.9929 55.2745 54.2901V55.1666C55.2745 55.4638 55.0284 55.7046 54.7251 55.7046ZM51.6594 54.5367C51.3559 54.5367 51.11 54.2959 51.11 53.9987V53.1222C51.11 52.8251 51.3559 52.5842 51.6594 52.5842C51.9629 52.5842 52.2088 52.8251 52.2088 53.1222V53.9987C52.2088 54.2959 51.9629 54.5367 51.6594 54.5367ZM37.2756 54.4134C36.9721 54.4134 36.7262 54.1726 36.7262 53.8754V52.9989C36.7262 52.7017 36.9721 52.4609 37.2756 52.4609C37.5792 52.4609 37.8251 52.7017 37.8251 52.9989V53.8754C37.8251 54.1726 37.5789 54.4134 37.2756 54.4134ZM41.0002 54.1063C40.6967 54.1063 40.4508 53.8655 40.4508 53.5684V52.6918C40.4508 52.3947 40.6967 52.1539 41.0002 52.1539C41.3037 52.1539 41.5497 52.3947 41.5497 52.6918V53.5684C41.5497 53.8655 41.3037 54.1063 41.0002 54.1063ZM45.9852 53.9673C45.6817 53.9673 45.4358 53.7265 45.4358 53.4293V52.5528C45.4358 52.2556 45.6817 52.0148 45.9852 52.0148C46.2887 52.0148 46.5346 52.2556 46.5346 52.5528V53.4293C46.5346 53.7263 46.2887 53.9673 45.9852 53.9673ZM49.2702 53.0988C49.0706 53.0988 48.8783 52.9918 48.781 52.8063C48.7441 52.7379 47.9324 51.2694 45.8902 51.2694C43.8191 51.2694 43.0088 52.7885 43.0008 52.8038C42.8635 53.0691 42.5329 53.1748 42.2624 53.0405C41.9918 52.9062 41.8835 52.5825 42.0206 52.3176C42.0657 52.2309 43.1516 50.1936 45.8902 50.1936C48.6289 50.1936 49.7148 52.2309 49.7596 52.3176C49.897 52.5825 49.7889 52.9062 49.5179 53.0405C49.4388 53.0798 49.3537 53.0988 49.2702 53.0988ZM56.6319 51.1872C56.3284 51.1872 56.0824 50.9464 56.0824 50.6492V49.7727C56.0824 49.4755 56.3284 49.2347 56.6319 49.2347C56.9354 49.2347 57.1813 49.4755 57.1813 49.7727V50.6492C57.1813 50.9462 56.9354 51.1872 56.6319 51.1872ZM53.5275 50.9797C53.224 50.9797 52.9781 50.7389 52.9781 50.4417V49.5652C52.9781 49.268 53.224 49.0272 53.5275 49.0272C53.831 49.0272 54.077 49.268 54.077 49.5652V50.4417C54.077 50.7389 53.831 50.9797 53.5275 50.9797ZM38.4728 50.5493C38.1693 50.5493 37.9233 50.3085 37.9233 50.0113V49.1348C37.9233 48.8376 38.1693 48.5968 38.4728 48.5968C38.7763 48.5968 39.0222 48.8376 39.0222 49.1348V50.0113C39.0222 50.3085 38.7763 50.5493 38.4728 50.5493ZM41.5497 50.1112C41.2461 50.1112 41.0002 49.8704 41.0002 49.5732V48.6967C41.0002 48.3995 41.2461 48.1587 41.5497 48.1587C41.8532 48.1587 42.0991 48.3995 42.0991 48.6967V49.5732C42.0991 49.8702 41.8532 50.1112 41.5497 50.1112ZM35.1486 50.1112C34.8451 50.1112 34.5992 49.8704 34.5992 49.5732V48.6967C34.5992 48.3995 34.8451 48.1587 35.1486 48.1587C35.4522 48.1587 35.6981 48.3995 35.6981 48.6967V49.5732C35.6981 49.8702 35.4522 50.1112 35.1486 50.1112ZM49.7913 49.896C49.4878 49.896 49.2419 49.6552 49.2419 49.358V48.4815C49.2419 48.1843 49.4878 47.9435 49.7913 47.9435C50.0948 47.9435 50.3407 48.1843 50.3407 48.4815V49.358C50.3407 49.655 50.0948 49.896 49.7913 49.896ZM45.3958 48.8919C45.0922 48.8919 44.8463 48.6511 44.8463 48.3539V47.4774C44.8463 47.1802 45.0922 46.9394 45.3958 46.9394C45.6993 46.9394 45.9452 47.1802 45.9452 47.4774V48.3539C45.9452 48.6508 45.6993 48.8919 45.3958 48.8919ZM55.2308 48.0152C54.9273 48.0152 54.6813 47.7743 54.6813 47.4772V46.6007C54.6813 46.3035 54.9273 46.0627 55.2308 46.0627C55.5343 46.0627 55.7802 46.3035 55.7802 46.6007V47.4772C55.7802 47.7743 55.5343 48.0152 55.2308 48.0152ZM36.7695 47.5848C36.466 47.5848 36.2201 47.344 36.2201 47.0468V46.1703C36.2201 45.8731 36.466 45.6323 36.7695 45.6323C37.073 45.6323 37.3189 45.8731 37.3189 46.1703V47.0468C37.3189 47.344 37.073 47.5848 36.7695 47.5848ZM58.8571 47.1386C58.5536 47.1386 58.3077 46.8978 58.3077 46.6007V45.7241C58.3077 45.427 58.5536 45.1862 58.8571 45.1862C59.1606 45.1862 59.4065 45.427 59.4065 45.7241V46.6007C59.4065 46.8978 59.1606 47.1386 58.8571 47.1386ZM33.1432 46.7083C32.8397 46.7083 32.5937 46.4674 32.5937 46.1703V45.2938C32.5937 44.9966 32.8397 44.7558 33.1432 44.7558C33.4467 44.7558 33.6926 44.9966 33.6926 45.2938V46.1703C33.6926 46.4674 33.4467 46.7083 33.1432 46.7083ZM51.6594 44.0654C49.5823 44.0654 47.879 42.2138 47.7647 39.8893C47.7568 39.7894 47.7526 39.6885 47.7526 39.5867C47.7526 38.8897 47.9438 38.2359 48.2779 37.6723C48.286 37.6574 48.2948 37.6428 48.3041 37.6288C48.9867 36.5113 50.2352 35.7613 51.6594 35.7613C53.8137 35.7613 55.5659 37.4773 55.5659 39.5865C55.5659 39.6885 55.5618 39.7892 55.5539 39.889C55.44 42.2138 53.7367 44.0654 51.6594 44.0654ZM48.8616 39.8191C48.9827 41.2265 50.1913 42.3354 51.6594 42.3354C53.1275 42.3354 54.3363 41.2265 54.4572 39.8191C54.4598 39.7599 54.4611 39.7001 54.4611 39.6403C54.4611 39.6134 54.4631 39.5869 54.4668 39.5613C54.4633 39.1696 54.3756 38.7973 54.2209 38.461H49.0977C48.943 38.7973 48.855 39.1696 48.8517 39.5613C48.8557 39.5869 48.8575 39.6134 48.8575 39.6403C48.8577 39.7003 48.859 39.7599 48.8616 39.8191ZM49.9796 37.385H53.3394C52.8706 37.0411 52.2891 36.8373 51.6594 36.8373C51.0297 36.8373 50.4484 37.0411 49.9796 37.385ZM40.6327 44.0654C38.5545 44.0654 36.8508 42.2121 36.7381 39.8856C36.7302 39.787 36.7262 39.6872 36.7262 39.5865C36.7262 38.8903 36.9172 38.237 37.2506 37.6738C37.2592 37.6579 37.2686 37.6424 37.2785 37.6271C37.9613 36.5104 39.2095 35.7611 40.6327 35.7611C42.7868 35.7611 44.5393 37.4771 44.5393 39.5863C44.5393 39.687 44.5353 39.7868 44.5274 39.8854C44.4147 42.2121 42.711 44.0654 40.6327 44.0654ZM37.8348 39.8165C37.9543 41.2252 39.1635 42.3356 40.6325 42.3356C42.1015 42.3356 43.3107 41.2252 43.4303 39.8165C43.4329 39.7582 43.4342 39.6995 43.4342 39.6405C43.4342 39.6138 43.4362 39.5878 43.44 39.5622C43.4364 39.1705 43.3487 38.7978 43.1938 38.4612H38.0708C37.9159 38.7978 37.8282 39.1705 37.8246 39.5622C37.8286 39.5878 37.8304 39.6138 37.8304 39.6405C37.8308 39.6995 37.8321 39.7582 37.8348 39.8165ZM38.9528 37.385H42.3125C41.8437 37.0411 41.262 36.8373 40.6325 36.8373C40.0031 36.8373 39.4215 37.0411 38.9528 37.385ZM51.6594 40.1783C51.3559 40.1783 51.11 39.9375 51.11 39.6403V39.5865C51.11 39.2893 51.3559 39.0485 51.6594 39.0485C51.9629 39.0485 52.2088 39.2893 52.2088 39.5865V39.6403C52.2088 39.9375 51.9629 40.1783 51.6594 40.1783ZM40.6327 40.1783C40.3292 40.1783 40.0833 39.9375 40.0833 39.6403V39.5865C40.0833 39.2893 40.3292 39.0485 40.6327 39.0485C40.9363 39.0485 41.1822 39.2893 41.1822 39.5865V39.6403C41.1822 39.9375 40.936 40.1783 40.6327 40.1783ZM38.8376 33.5146C38.6752 33.5146 38.5145 33.4445 38.4062 33.3102C38.2181 33.0769 38.2587 32.7386 38.4969 32.5544L42.0877 29.7782C42.3259 29.5942 42.6714 29.634 42.8593 29.8668C43.0474 30.1001 43.0068 30.4384 42.7685 30.6226L39.1778 33.3989C39.0769 33.477 38.9569 33.5146 38.8376 33.5146ZM53.3475 33.2911C53.2501 33.2911 53.1515 33.2659 53.0622 33.2127L49.1542 30.8836C48.8948 30.7291 48.8126 30.3981 48.9704 30.1442C49.1282 29.8903 49.4665 29.8102 49.7256 29.9643L53.6337 32.2934C53.893 32.4479 53.9752 32.7789 53.8174 33.0328C53.7139 33.1994 53.533 33.2911 53.3475 33.2911Z" fill="#FDD303"></path>
  </g>
  <defs>
    <clipPath id="clip0">
      <rect width="48" height="47" fill="white" transform="translate(22 14.5605)"></rect>
    </clipPath>
  </defs>
</svg>
