<?xml version="1.0" encoding="UTF-8"?>
<svg xmlns="http://www.w3.org/2000/svg" width="95" height="96" viewBox="0 0 95 96" fill="none">
  <circle cx="47.5" cy="48.0605" r="47.5" fill="black"></circle>
  <path d="M52.7121 46.3458L52.7217 46.3486L52.7316 46.3495C57.3132 46.7609 60.9165 50.6225 60.9167 55.3101V59.7111C60.9167 60.1508 60.5601 60.5074 60.1205 60.5074H35.7614C35.3218 60.5074 34.9652 60.1508 34.9652 59.7111V55.31C34.9652 50.6223 38.5686 46.7608 43.1502 46.3494L43.1602 46.3485L43.1698 46.3457C43.2809 46.3126 43.3984 46.3052 43.5135 46.322L43.523 46.3234L43.5327 46.3229C43.5486 46.3222 43.5586 46.322 43.5773 46.3213L43.8086 46.3116L43.6431 46.1498C42.4981 45.0311 41.7858 43.4719 41.7858 41.7489V36.9026C41.7858 34.2136 43.9733 32.0258 46.6617 32.0258H53.2998C53.7394 32.0258 54.096 32.3824 54.096 32.8221V41.749C54.096 43.472 53.3837 45.0312 52.2387 46.1499L52.0732 46.3117L52.3045 46.3213C52.313 46.3217 52.3197 46.3219 52.326 46.3221C52.3335 46.3224 52.3404 46.3226 52.3491 46.323L52.3588 46.3235L52.3684 46.3221C52.4835 46.3052 52.6009 46.3127 52.7121 46.3458ZM52.5035 33.7184V33.6184H52.4035H46.6615C44.8509 33.6184 43.3779 35.0916 43.3779 36.9026V38.158V38.315V38.415H43.4779H50.2059C51.4729 38.415 52.5035 37.3842 52.5035 36.117V33.7184ZM43.4779 40.0076H43.3779V40.1076V41.749C43.3779 44.2654 45.4246 46.3126 47.9407 46.3126C50.4567 46.3126 52.5035 44.2653 52.5035 41.7489V39.4454V39.2592L52.3483 39.362C51.7334 39.7695 50.9972 40.0076 50.2059 40.0076H43.4779ZM50.3914 48.0759L50.5621 47.9052H50.3207H45.5608H45.3194L45.4901 48.0759L47.8701 50.4563L47.9408 50.527L48.0115 50.4563L50.3914 48.0759ZM59.2242 58.9148H59.3242V58.8148V55.3101C59.3242 51.5289 56.4755 48.403 52.8125 47.9608L52.7642 47.955L52.7298 47.9894L48.5037 52.2162C48.3482 52.3717 48.1446 52.4495 47.9408 52.4495C47.7369 52.4495 47.5333 52.3717 47.3778 52.2162L43.1517 47.9894L43.1173 47.955L43.069 47.9608C39.6943 48.3683 37.0129 51.0538 36.6113 54.4309L36.5981 54.5427H36.7106H43.9702C44.4098 54.5427 44.7663 54.8992 44.7663 55.339C44.7663 55.7787 44.4098 56.1353 43.9702 56.1353H36.6573H36.5573V56.2353V58.8148V58.9148H36.6573H59.2242Z" fill="#FDD303" stroke="black" stroke-width="0.2"></path>
  <path d="M48.5034 55.9027L48.5034 55.9027C48.3555 56.0522 48.1498 56.1383 47.941 56.1383C47.7323 56.1383 47.5266 56.0522 47.3785 55.9027C47.2304 55.7531 47.1449 55.5449 47.1449 55.333C47.1449 55.1212 47.2305 54.9129 47.3786 54.7633C47.5266 54.6138 47.7322 54.5277 47.941 54.5277C48.1498 54.5277 48.3555 54.6138 48.5034 54.7633L48.5035 54.7633C48.6516 54.9129 48.7372 55.1212 48.7372 55.333C48.7372 55.5448 48.6515 55.7531 48.5034 55.9027Z" fill="#FDD303" stroke="black" stroke-width="0.2"></path>
  <path d="M47.156 26.2444V26.1681L47.0824 26.148C45.6804 25.7651 44.6469 24.4814 44.6469 22.9608C44.6469 21.139 46.1297 19.6566 47.9522 19.6566C49.7746 19.6566 51.2575 21.139 51.2575 22.9608C51.2575 24.4814 50.224 25.7651 48.822 26.148L48.7483 26.1681V26.2444V28.4323C48.7483 28.8717 48.3918 29.2281 47.9522 29.2281C47.5125 29.2281 47.156 28.8717 47.156 28.4323V26.2444ZM46.2391 22.9608C46.2391 23.9051 47.0076 24.6733 47.9522 24.6733C48.8968 24.6733 49.6652 23.9051 49.6652 22.9608C49.6652 22.0164 48.8968 21.2483 47.9522 21.2483C47.0076 21.2483 46.2391 22.0164 46.2391 22.9608Z" fill="#FDD303" stroke="black" stroke-width="0.2"></path>
  <path d="M60.7034 30.6705L60.6493 30.7245L59.1017 32.2718C58.7909 32.5825 58.7908 33.0865 59.1017 33.3974C59.2573 33.5527 59.4609 33.6305 59.6648 33.6305C59.8687 33.6305 60.0722 33.5527 60.2277 33.3973L61.7746 31.8508L61.8287 31.7967L61.8951 31.8348C62.389 32.1179 62.9499 32.2697 63.535 32.2697C64.4181 32.2697 65.2477 31.926 65.8721 31.3018L65.8722 31.3018C66.4967 30.6775 66.8404 29.848 66.8404 28.9651C66.8404 28.0823 66.4967 27.2528 65.8722 26.6284C65.2477 26.0042 64.4181 25.6605 63.535 25.6605C62.6519 25.6605 61.8223 26.0042 61.1978 26.6285C61.1978 26.6285 61.1978 26.6285 61.1978 26.6285M60.7034 30.6705L60.5786 30.6538C59.8365 29.3539 60.0187 27.666 61.1271 26.5578L61.1978 26.6285M60.7034 30.6705L60.6655 30.6042C59.945 29.3423 60.1222 27.7039 61.1978 26.6285M60.7034 30.6705L61.1978 26.6285M62.3239 30.1763C61.6558 29.5084 61.6558 28.4219 62.3238 27.7541C62.6578 27.4201 63.0966 27.2532 63.5351 27.2532C63.9735 27.2532 64.4124 27.4201 64.7464 27.7541C64.7464 27.7541 64.7464 27.7541 64.7464 27.7541M62.3239 30.1763L64.6757 27.8248L64.7464 27.7541M62.3239 30.1763C62.9918 30.8441 64.0785 30.8441 64.7464 30.1763C65.0698 29.8529 65.2482 29.4225 65.2482 28.9652C65.2482 28.5079 65.0698 28.0775 64.7464 27.7541M62.3239 30.1763L64.7464 27.7541" fill="#FDD303" stroke="black" stroke-width="0.2"></path>
  <path d="M64.1922 43.7451H64.2685L64.2886 43.6715C64.6716 42.27 65.9558 41.2367 67.4769 41.2367C69.2994 41.2367 70.7822 42.7192 70.7822 44.541C70.7822 46.3629 69.2994 47.8453 67.4769 47.8453C65.9558 47.8453 64.6716 46.8121 64.2886 45.4105L64.2685 45.3369H64.1922H62.0035C61.5639 45.3369 61.2074 44.9805 61.2074 44.541C61.2074 44.1016 61.5639 43.7451 62.0035 43.7451H64.1922ZM65.7639 44.541C65.7639 45.4854 66.5323 46.2536 67.4769 46.2536C68.4215 46.2536 69.1899 45.4854 69.1899 44.541C69.1899 43.5966 68.4215 42.8285 67.4769 42.8285C66.5323 42.8285 65.7639 43.5966 65.7639 44.541Z" fill="#FDD303" stroke="black" stroke-width="0.2"></path>
  <path d="M58.6052 43.7699C58.8144 43.7699 59.0202 43.8549 59.1681 44.002C59.3163 44.1502 59.4013 44.3539 59.4013 44.5615C59.4013 44.7693 59.3161 44.9738 59.1682 45.1209L59.1679 45.1211C59.0203 45.2688 58.8147 45.3531 58.6052 45.3531C58.3956 45.3531 58.19 45.2689 58.0423 45.1211L58.0421 45.1209C57.8941 44.9738 57.809 44.7702 57.809 44.5615C57.809 44.3538 57.8942 44.1493 58.0421 44.002C58.19 43.8548 58.3958 43.7699 58.6052 43.7699Z" fill="#FDD303" stroke="black" stroke-width="0.2"></path>
  <path d="M31.5937 43.6593L31.6138 43.7329H31.6901H33.8788C34.3184 43.7329 34.6749 44.0895 34.6749 44.5293C34.6749 44.9691 34.3184 45.3257 33.8788 45.3257H31.6901H31.6138L31.5937 45.3993C31.2107 46.8017 29.9265 47.8355 28.4053 47.8355C26.5829 47.8355 25.1 46.3523 25.1 44.5293C25.1 42.7063 26.5829 41.223 28.4053 41.223C29.9265 41.223 31.2107 42.2569 31.5937 43.6593ZM26.6923 44.5293C26.6923 45.4742 27.4607 46.2428 28.4053 46.2428C29.35 46.2428 30.1184 45.4742 30.1184 44.5293C30.1184 43.5844 29.35 42.8158 28.4053 42.8158C27.4607 42.8158 26.6923 43.5844 26.6923 44.5293Z" fill="#FDD303" stroke="black" stroke-width="0.2"></path>
  <path d="M35.1256 30.5883L35.1637 30.522C35.447 30.0281 35.5987 29.4671 35.5987 28.882C35.5987 27.9989 35.255 27.1692 34.6305 26.5447C34.006 25.9203 33.1763 25.5766 32.2933 25.5766C31.4102 25.5766 30.5806 25.9203 29.9561 26.5448L35.1256 30.5883ZM35.1256 30.5883L35.1797 30.6424M35.1256 30.5883L35.1797 30.6424M35.1797 30.6424L36.7266 32.1893M35.1797 30.6424L36.7266 32.1893M33.9997 31.7142L34.0538 31.7683L35.6007 33.3152C35.6007 33.3152 35.6007 33.3152 35.6008 33.3152C35.7563 33.4707 35.9598 33.5484 36.1637 33.5484C36.3676 33.5484 36.5711 33.4707 36.7266 33.3152C36.7267 33.3152 36.7267 33.3152 36.7267 33.3152M33.9997 31.7142L36.7974 33.386L36.7267 33.3152M33.9997 31.7142L33.9334 31.7523M33.9997 31.7142L33.9334 31.7523M36.7267 33.3152C37.0375 33.0043 37.0375 32.5002 36.7267 32.1893C36.7266 32.1893 36.7266 32.1893 36.7266 32.1893M36.7267 33.3152L36.7266 32.1893M33.9334 31.7523C33.4395 32.0355 32.8785 32.1873 32.2934 32.1873C31.4102 32.1873 30.5806 31.8436 29.9561 31.2192M33.9334 31.7523L29.9561 31.2192M29.9561 31.2192C28.6675 29.9305 28.6675 27.8334 29.9561 26.5448L29.9561 31.2192ZM31.0822 30.0934C31.7494 30.7609 32.8348 30.7615 33.5029 30.0951C33.5041 30.094 33.5055 30.0927 33.5069 30.0911C33.8289 29.768 34.0065 29.3383 34.0065 28.8821C34.0065 28.4246 33.8281 27.9941 33.5047 27.6707C33.1707 27.3366 32.7318 27.1696 32.2934 27.1696C31.8549 27.1696 31.4161 27.3366 31.0821 27.6707C30.4141 28.3386 30.4141 29.4253 31.0822 30.0934Z" fill="#FDD303" stroke="black" stroke-width="0.2"></path>
</svg>
