<?xml version="1.0" encoding="UTF-8"?>
<svg xmlns="http://www.w3.org/2000/svg" width="109" height="85" viewBox="0 0 109 85" fill="none">
  <path opacity="0.5" d="M27.2802 2.05771C27.6865 0.829417 28.8346 0 30.1283 0H58.743C60.7879 0 62.2335 2.00093 61.5912 3.94228L35.6153 82.4578C35.2089 83.6861 34.0609 84.5155 32.7671 84.5155H4.15243C2.10759 84.5155 0.661985 82.5146 1.30426 80.5732L27.2802 2.05771Z" fill="white"></path>
  <path opacity="0.5" d="M72.7391 2.05771C73.1455 0.829417 74.2935 0 75.5873 0H104.202C106.247 0 107.692 2.00093 107.05 3.94228L81.0742 82.4578C80.6678 83.6861 79.5198 84.5155 78.226 84.5155H49.6114C47.5665 84.5155 46.1209 82.5146 46.7632 80.5732L72.7391 2.05771Z" fill="white"></path>
</svg>
