<?xml version="1.0" encoding="UTF-8"?>
<svg xmlns="http://www.w3.org/2000/svg" width="37" height="44" viewBox="0 0 37 44" fill="none">
  <path fill-rule="evenodd" clip-rule="evenodd" d="M18.3703 28.4407L14.9502 21.4617L18.3703 13.0157L22.451 2.96007L32.0324 0.52356L18.3703 28.4407ZM4.68945 0.52356L14.2756 2.9906L18.0724 12.2866L14.5972 20.7417L4.68945 0.52356Z" fill="#0C0C0C"></path>
  <path d="M22.4228 2.61785L14.8789 21.4195L18.3607 28.3831L32.2879 0.528778L22.4228 2.61785Z" fill="#0C0C0C"></path>
  <path fill-rule="evenodd" clip-rule="evenodd" d="M35.9043 34.8335C35.6578 34.8335 35.4574 34.5911 35.4574 34.2936C35.4574 33.9962 35.6578 33.7537 35.9043 33.7537C36.1511 33.7537 36.3515 33.9962 36.3515 34.2936C36.3515 34.5911 36.1511 34.8335 35.9043 34.8335ZM35.9043 33.8117C35.6845 33.8117 35.5056 34.028 35.5056 34.2936C35.5056 34.5592 35.6845 34.7755 35.9043 34.7755C36.1245 34.7755 36.3033 34.5592 36.3033 34.2936C36.3033 34.028 36.1245 33.8117 35.9043 33.8117ZM36.1277 34.5845H36.0284L35.909 34.3826H35.805V34.5845H35.7208V34.0054H35.9345C36.0468 34.0054 36.1126 34.0782 36.1126 34.1898C36.1126 34.2853 36.0651 34.3416 35.9982 34.3652L36.1277 34.5845ZM36.027 34.1942C36.027 34.1318 35.9899 34.0983 35.9277 34.0983H35.805V34.2928H35.9284C35.9885 34.2928 36.027 34.2544 36.027 34.1942ZM33.2771 39.3507H32.4162V37.3908L30.5946 33.7516H31.5153L32.8731 36.4789L34.2442 33.7516H35.0919L33.2771 37.3751V39.3507ZM29.3897 39.3507L27.7534 37.0071L27.018 37.919V39.3507H26.157V33.7516H27.018V36.6229L29.3098 33.7516H30.2769L28.3297 36.2552L30.3963 39.3507H29.3897ZM26.9813 41.7828H27.2058V43.6821H27.0216L26.0775 42.2656V43.6821H25.853V41.7828H26.0372L26.9813 43.1993V41.7828ZM25.4241 37.7668C25.4241 38.6625 24.8211 39.4305 23.5496 39.4305C22.8275 39.4305 22.1055 39.1588 21.7216 38.7589L22.0195 37.9508C22.3904 38.3106 22.9797 38.5666 23.5496 38.5666C24.2717 38.5666 24.5761 38.2548 24.5761 37.8387C24.5761 36.6311 21.8205 37.4227 21.8205 35.3433C21.8205 34.4393 22.4167 33.6718 23.6885 33.6718C24.2447 33.6718 24.8279 33.8475 25.232 34.1676L24.946 34.9661C24.529 34.67 24.0861 34.5352 23.682 34.5352C22.9668 34.5352 22.6754 34.8715 22.6754 35.2954C22.6754 36.4872 25.4241 35.7114 25.4241 37.7668ZM22.9322 42.0188H22.3929V43.6821H22.1702V42.0188H21.6309V41.7828H22.9322V42.0188ZM19.9183 34.6312V39.3507H19.0574V34.6312H17.5204V33.7516H21.455L21.1409 34.6312H19.9183ZM18.0115 42.8517V41.7828H18.2291V42.8626C18.2291 43.4138 17.9798 43.7039 17.5639 43.7039C17.1505 43.7039 16.8986 43.4138 16.8986 42.8626V41.7828H17.1235V42.8517C17.1235 43.2726 17.2833 43.4623 17.5664 43.4623C17.8496 43.4623 18.0115 43.2726 18.0115 42.8517ZM14.8263 39.4305C13.3889 39.4305 12.3294 38.2068 12.3294 36.5509C12.3294 34.8955 13.3889 33.6718 14.8263 33.6718C16.2636 33.6718 17.3236 34.8876 17.3236 36.5509C17.3236 38.2146 16.2636 39.4305 14.8263 39.4305ZM14.8263 34.5836C13.8923 34.5836 13.1968 35.4074 13.1968 36.5509C13.1968 37.6948 13.8923 38.5186 14.8263 38.5186C15.7603 38.5186 16.4557 37.6948 16.4557 36.5509C16.4557 35.4074 15.7603 34.5836 14.8263 34.5836ZM12.8406 41.7828H13.0655V43.6821H12.8813L11.9372 42.2656V43.6821H11.7123V41.7828H11.8966L12.8406 43.1993V41.7828ZM11.68 37.7668C11.68 38.6625 11.077 39.4305 9.80548 39.4305C9.08339 39.4305 8.3613 39.1588 7.97741 38.7589L8.27532 37.9508C8.64625 38.3106 9.23558 38.5666 9.80548 38.5666C10.5276 38.5666 10.8319 38.2548 10.8319 37.8387C10.8319 36.6311 8.07635 37.4227 8.07635 35.3433C8.07635 34.4393 8.67252 33.6718 9.94436 33.6718C10.5006 33.6718 11.0838 33.8475 11.4878 34.1676L11.2018 34.9661C10.7848 34.67 10.3419 34.5352 9.93752 34.5352C9.22263 34.5352 8.93084 34.8715 8.93084 35.2954C8.93084 36.4872 11.68 35.7114 11.68 37.7668ZM6.96858 43.4623C7.14163 43.4623 7.29022 43.389 7.41147 43.2346L7.55754 43.4051C7.41363 43.6009 7.20244 43.7039 6.95742 43.7039C6.48107 43.7039 6.12596 43.2939 6.12596 42.7322C6.12596 42.1705 6.48107 41.7606 6.95994 41.7606C7.20244 41.7606 7.41363 41.8609 7.55754 42.0563L7.41147 42.2272C7.29022 42.0728 7.14163 42.0022 6.96858 42.0022C6.61347 42.0022 6.35083 42.3118 6.35083 42.7322C6.35083 43.1531 6.61347 43.4623 6.96858 43.4623ZM6.11804 33.7516H6.97901V39.3507H6.11804V33.7516ZM2.39679 39.3507L0.370117 33.7516H1.30412L2.8476 38.0712L4.40367 33.7516H5.26499L3.2448 39.3507H2.39679ZM9.545 41.7606C10.0239 41.7606 10.379 42.1731 10.379 42.7322C10.379 43.2913 10.0239 43.7039 9.545 43.7039C9.06181 43.7039 8.7067 43.2887 8.7067 42.7322C8.7067 42.1762 9.06181 41.7606 9.545 41.7606ZM9.545 43.4623C9.89327 43.4623 10.1541 43.1531 10.1541 42.7322C10.1541 42.3118 9.89327 42.0022 9.545 42.0022C9.19241 42.0022 8.93156 42.3118 8.93156 42.7322C8.93156 43.1531 9.19241 43.4623 9.545 43.4623ZM14.9857 43.4732C15.2573 43.4732 15.3742 43.3458 15.3742 43.1801C15.3742 42.7161 14.4215 43.0091 14.4215 42.3035C14.4215 42.0105 14.6101 41.7606 15.0238 41.7606C15.208 41.7606 15.3991 41.8203 15.5293 41.9289L15.4552 42.1461C15.3181 42.0406 15.163 41.9913 15.0238 41.9913C14.7561 41.9913 14.6417 42.1269 14.6417 42.2926C14.6417 42.7566 15.5948 42.4666 15.5948 43.164C15.5948 43.4544 15.4012 43.7039 14.9857 43.7039C14.745 43.7039 14.509 43.6062 14.383 43.4649L14.4661 43.2534C14.5831 43.3811 14.7831 43.4732 14.9857 43.4732ZM19.9043 43.4461H20.7563V43.6821H19.6794V41.7828H19.9043V43.4461ZM24.3915 43.6821H24.1667V41.7828H24.3915V43.6821ZM29.3821 41.7606C29.6318 41.7606 29.843 41.8609 29.9865 42.0536L29.8473 42.222C29.7171 42.0698 29.5688 42.0022 29.3911 42.0022C29.027 42.0022 28.764 42.3088 28.764 42.7322C28.764 43.1504 29.027 43.4623 29.3889 43.4623C29.5213 43.4623 29.6451 43.4269 29.7574 43.3401V42.7213H29.9732V43.4623C29.816 43.6227 29.598 43.7039 29.3778 43.7039C28.8946 43.7039 28.5395 43.2939 28.5395 42.7322C28.5395 42.1705 28.8946 41.7606 29.3821 41.7606Z" fill="#0C0C0C"></path>
</svg>
