<?xml version="1.0" encoding="UTF-8"?>
<svg xmlns="http://www.w3.org/2000/svg" width="79" height="80" viewBox="0 0 79 80" fill="none">
  <g clip-path="url(#clip0)">
    <path fill-rule="evenodd" clip-rule="evenodd" d="M39.5212 51.6335L32.0115 38.8634L39.5212 23.4089L48.4814 5.00909L69.5199 0.550781L39.5212 51.6335ZM9.48145 0.550781L30.5302 5.06495L38.8671 22.0747L31.2365 37.5459L9.48145 0.550781Z" fill="#FDD303"></path>
    <path d="M48.419 4.38313L31.8545 38.7864L39.4997 51.5283L70.0803 0.560547L48.419 4.38313Z" fill="#FDD303"></path>
    <path fill-rule="evenodd" clip-rule="evenodd" d="M78.0195 63.3309C77.4783 63.3309 77.0383 62.8872 77.0383 62.343C77.0383 61.7988 77.4783 61.3551 78.0195 61.3551C78.5614 61.3551 79.0014 61.7988 79.0014 62.343C79.0014 62.8872 78.5614 63.3309 78.0195 63.3309ZM78.0195 61.4612C77.5368 61.4612 77.1441 61.857 77.1441 62.343C77.1441 62.829 77.5368 63.2248 78.0195 63.2248C78.503 63.2248 78.8956 62.829 78.8956 62.343C78.8956 61.857 78.503 61.4612 78.0195 61.4612ZM78.5101 62.8753H78.292L78.0297 62.5058H77.8014V62.8753H77.6166V61.8155H78.0858C78.3323 61.8155 78.4769 61.9488 78.4769 62.1531C78.4769 62.3278 78.3726 62.4308 78.2257 62.4739L78.5101 62.8753ZM78.2889 62.1611C78.2889 62.0469 78.2075 61.9855 78.0708 61.9855H77.8014V62.3414H78.0724C78.2043 62.3414 78.2889 62.2712 78.2889 62.1611ZM72.2509 71.5964H70.3604V68.0102L66.3606 61.3511H68.3823L71.3637 66.3417L74.3744 61.3511H76.2356L72.2509 67.9815V71.5964ZM63.7149 71.5964L60.122 67.308L58.5073 68.9766V71.5964H56.6168V61.3511H58.5073V66.605L63.5396 61.3511H65.6631L61.3876 65.9323L65.9254 71.5964H63.7149ZM58.4267 76.0467H58.9196V79.5219H58.5152L56.4422 76.9301V79.5219H55.9492V76.0467H56.3537L58.4267 78.6385V76.0467ZM55.0076 68.6981C55.0076 70.3372 53.6835 71.7424 50.8917 71.7424C49.3061 71.7424 47.7206 71.2453 46.8777 70.5135L47.5318 69.0349C48.3463 69.6932 49.6403 70.1616 50.8917 70.1616C52.4772 70.1616 53.1455 69.591 53.1455 68.8298C53.1455 66.6202 47.0949 68.0685 47.0949 64.2637C47.0949 62.6095 48.4039 61.2051 51.1966 61.2051C52.4179 61.2051 53.6985 61.5267 54.5857 62.1124L53.9577 63.5735C53.042 63.0317 52.0696 62.7851 51.1824 62.7851C49.6119 62.7851 48.972 63.4003 48.972 64.176C48.972 66.3568 55.0076 64.9372 55.0076 68.6981ZM49.536 76.4784H48.3518V79.5219H47.8628V76.4784H46.6786V76.0467H49.536V76.4784ZM42.9182 62.9606V71.5964H41.0277V62.9606H37.6528V61.3511H46.2923L45.6026 62.9606H42.9182ZM38.7312 78.0025V76.0467H39.2091V78.0225C39.2091 79.0311 38.6617 79.5618 37.7484 79.5618C36.8407 79.5618 36.2877 79.0311 36.2877 78.0225V76.0467H36.7815V78.0025C36.7815 78.7726 37.1322 79.1197 37.754 79.1197C38.3757 79.1197 38.7312 78.7726 38.7312 78.0025ZM31.7373 71.7424C28.5813 71.7424 26.2547 69.5033 26.2547 66.4733C26.2547 63.4442 28.5813 61.2051 31.7373 61.2051C34.8934 61.2051 37.2207 63.4298 37.2207 66.4733C37.2207 69.5176 34.8934 71.7424 31.7373 71.7424ZM31.7373 62.8737C29.6865 62.8737 28.1594 64.381 28.1594 66.4733C28.1594 68.5664 29.6865 70.0738 31.7373 70.0738C33.7882 70.0738 35.3152 68.5664 35.3152 66.4733C35.3152 64.381 33.7882 62.8737 31.7373 62.8737ZM27.3773 76.0467H27.8711V79.5219H27.4666L25.3936 76.9301V79.5219H24.8999V76.0467H25.3043L27.3773 78.6385V76.0467ZM24.8288 68.6981C24.8288 70.3372 23.5047 71.7424 20.7129 71.7424C19.1273 71.7424 17.5418 71.2453 16.6989 70.5135L17.353 69.0349C18.1675 69.6932 19.4615 70.1616 20.7129 70.1616C22.2984 70.1616 22.9667 69.591 22.9667 68.8298C22.9667 66.6202 16.9161 68.0685 16.9161 64.2637C16.9161 62.6095 18.2252 61.2051 21.0178 61.2051C22.2391 61.2051 23.5197 61.5267 24.4069 62.1124L23.7789 63.5735C22.8633 63.0317 21.8908 62.7851 21.0028 62.7851C19.4331 62.7851 18.7924 63.4003 18.7924 64.176C18.7924 66.3568 24.8288 64.9372 24.8288 68.6981ZM14.4837 79.1197C14.8637 79.1197 15.19 78.9857 15.4562 78.7032L15.7769 79.0152C15.4609 79.3735 14.9972 79.5618 14.4592 79.5618C13.4133 79.5618 12.6335 78.8117 12.6335 77.7839C12.6335 76.7561 13.4133 76.006 14.4648 76.006C14.9972 76.006 15.4609 76.1895 15.7769 76.547L15.4562 76.8598C15.19 76.5774 14.8637 76.4481 14.4837 76.4481C13.704 76.4481 13.1273 77.0147 13.1273 77.7839C13.1273 78.554 13.704 79.1197 14.4837 79.1197ZM12.6162 61.3511H14.5066V71.5964H12.6162V61.3511ZM4.44519 71.5964L-0.00488281 61.3511H2.04596L5.43506 69.2551L8.85181 61.3511H10.7431L6.30722 71.5964H4.44519ZM20.1409 76.006C21.1924 76.006 21.9721 76.7609 21.9721 77.7839C21.9721 78.8069 21.1924 79.5618 20.1409 79.5618C19.0799 79.5618 18.3002 78.8021 18.3002 77.7839C18.3002 76.7665 19.0799 76.006 20.1409 76.006ZM20.1409 79.1197C20.9056 79.1197 21.4784 78.554 21.4784 77.7839C21.4784 77.0147 20.9056 76.4481 20.1409 76.4481C19.3667 76.4481 18.794 77.0147 18.794 77.7839C18.794 78.554 19.3667 79.1197 20.1409 79.1197ZM32.0873 79.1397C32.6837 79.1397 32.9405 78.9067 32.9405 78.6034C32.9405 77.7544 30.8486 78.2906 30.8486 76.9995C30.8486 76.4632 31.2625 76.006 32.171 76.006C32.5755 76.006 32.995 76.1153 33.281 76.314L33.1182 76.7114C32.8173 76.5183 32.4768 76.4281 32.171 76.4281C31.5833 76.4281 31.3321 76.6763 31.3321 76.9795C31.3321 77.8286 33.4248 77.2979 33.4248 78.5739C33.4248 79.1054 32.9997 79.5618 32.0873 79.5618C31.5588 79.5618 31.0405 79.3831 30.764 79.1245L30.9465 78.7375C31.2033 78.9713 31.6425 79.1397 32.0873 79.1397ZM42.8874 79.0902H44.7581V79.5219H42.3936V76.0467H42.8874V79.0902ZM52.7403 79.5219H52.2465V76.0467H52.7403V79.5219ZM63.6983 76.006C64.2466 76.006 64.7103 76.1895 65.0256 76.5422L64.7198 76.8503C64.4338 76.5718 64.1084 76.4481 63.7181 76.4481C62.9186 76.4481 62.3411 77.0091 62.3411 77.7839C62.3411 78.5492 62.9186 79.1197 63.7134 79.1197C64.0041 79.1197 64.2758 79.0551 64.5223 78.8963V77.764H64.9963V79.1197C64.6511 79.4134 64.1724 79.5618 63.6889 79.5618C62.6279 79.5618 61.8482 78.8117 61.8482 77.7839C61.8482 76.7561 62.6279 76.006 63.6983 76.006Z" fill="#FDD303"></path>
  </g>
  <defs>
    <clipPath id="clip0">
      <rect width="79" height="79" fill="white" transform="translate(0 0.560547)"></rect>
    </clipPath>
  </defs>
</svg>
