<?xml version="1.0" encoding="UTF-8"?>
<svg xmlns="http://www.w3.org/2000/svg" width="143" height="48" viewBox="0 0 143 48" fill="none">
  <path d="M69.2679 5.66713C69.8221 3.49811 70.0992 2.41361 70.9112 1.78297C71.7232 1.15234 72.8425 1.15234 75.0812 1.15234H79.4348C82.989 1.15234 84.7662 1.15234 85.6669 2.31221C86.5677 3.47208 86.1278 5.1939 85.248 8.63756L76.497 42.8901C75.9428 45.0591 75.6657 46.1436 74.8537 46.7742C74.0417 47.4049 72.9224 47.4049 70.6837 47.4049H66.3301C62.7759 47.4049 60.9987 47.4049 60.0979 46.245C59.1972 45.0851 59.6371 43.3633 60.5169 39.9197L69.2679 5.66713Z" fill="#FDD303"></path>
  <path fill-rule="evenodd" clip-rule="evenodd" d="M0.695312 41.5604V33.3771L13.8734 22.5744C13.8739 22.574 13.8744 22.5736 13.8749 22.5732C16.3906 20.495 18.0556 18.8888 18.9367 17.7385C19.7644 16.6221 20.1653 15.4198 20.1653 14.1054C20.1653 12.7429 19.762 11.806 19.057 11.1552C18.3221 10.4768 17.3338 10.1004 15.9953 10.1004C14.7667 10.1004 13.6627 10.4429 12.6568 11.1344L12.6512 11.1383C11.6364 11.8258 10.3898 13.0558 8.90969 14.8969L8.28251 15.6771L0.818784 9.66465L1.38391 8.89403C3.45144 6.07466 5.61512 3.95116 7.88865 2.5792L7.8951 2.57531C10.2523 1.17696 13.1547 0.510389 16.5453 0.510389C20.7312 0.510389 24.1975 1.66696 26.8399 4.06768C29.4965 6.44406 30.8003 9.62477 30.8003 13.5004C30.8003 15.722 30.3708 17.7603 29.4925 19.5968L29.4887 19.6046C28.6341 21.3527 27.5248 22.9101 26.1624 24.2725L26.1573 24.2776L26.1521 24.2827C24.8281 25.5688 22.8681 27.2092 20.2914 29.197C20.2913 29.197 20.2914 29.1969 20.2914 29.197L16.3423 32.2454H31.1853V41.5604H0.695312ZM13.4103 33.2454L19.6803 28.4054C22.247 26.4254 24.172 24.8121 25.4553 23.5654C26.7386 22.2821 27.7836 20.8154 28.5903 19.1654C29.397 17.4787 29.8003 15.5904 29.8003 13.5004C29.8003 9.87039 28.5903 6.97372 26.1703 4.81039C23.7503 2.61039 20.542 1.51039 16.5453 1.51039C13.282 1.51039 10.5686 2.15206 8.40531 3.43539C6.27865 4.71872 4.20698 6.73539 2.19031 9.48539L8.13008 14.2702C8.14784 14.2481 8.16581 14.2263 8.18352 14.2043C9.66481 12.3693 10.9671 11.0713 12.0903 10.3104C13.2636 9.50372 14.5653 9.10039 15.9953 9.10039C17.5353 9.10039 18.782 9.54039 19.7353 10.4204C20.6886 11.3004 21.1653 12.5287 21.1653 14.1054C21.1653 15.6454 20.6886 17.0571 19.7353 18.3404C18.782 19.5871 17.0403 21.2554 14.5103 23.3454L1.69531 33.8504V40.5604H30.1853V33.2454H13.4103ZM65.3299 36.197L65.3269 36.2007C61.9417 40.2083 57.5344 42.2204 52.1879 42.2204C46.8412 42.2204 42.4498 40.2079 39.1003 36.1963C35.773 32.2113 34.1379 27.2246 34.1379 21.3104C34.1379 15.4292 35.7935 10.4605 39.1573 6.47705C42.541 2.4331 46.9486 0.400391 52.2979 0.400391C57.6096 0.400391 61.9812 2.41413 65.3289 6.42251C68.6934 10.4071 70.3479 15.3945 70.3479 21.3104C70.3479 27.1928 68.6918 32.1783 65.3299 36.197ZM39.9229 7.12039C36.7329 10.8971 35.1379 15.6271 35.1379 21.3104C35.1379 27.0304 36.7146 31.7787 39.8679 35.5554C43.0212 39.3321 47.1279 41.2204 52.1879 41.2204C57.2479 41.2204 61.3729 39.3321 64.5629 35.5554C67.7529 31.7421 69.3479 26.9937 69.3479 21.3104C69.3479 15.5904 67.7529 10.8421 64.5629 7.06539C61.4096 3.28872 57.3212 1.40039 52.2979 1.40039C47.2379 1.40039 43.1129 3.30706 39.9229 7.12039ZM57.5138 29.6138L57.5158 29.6107C58.9183 27.5071 59.6579 24.7638 59.6579 21.3104C59.6579 17.9394 58.904 15.2346 57.4669 13.1291L57.4628 13.1231C56.0429 11.0097 54.2992 10.0454 52.1879 10.0454C50.0712 10.0454 48.3492 10.9962 46.9699 13.0651L46.9658 13.0713C45.5679 15.1349 44.8279 17.856 44.8279 21.3104C44.8279 24.7223 45.5654 27.4465 46.9669 29.5511C48.3797 31.6188 50.1388 32.5754 52.2979 32.5754C54.4625 32.5754 56.1786 31.6328 57.5138 29.6138ZM46.1379 30.1104C44.5979 27.8004 43.8279 24.8671 43.8279 21.3104C43.8279 17.7171 44.5979 14.7837 46.1379 12.5104C47.6779 10.2004 49.6946 9.04539 52.1879 9.04539C54.6812 9.04539 56.7162 10.2187 58.2929 12.5654C59.8696 14.8754 60.6579 17.7904 60.6579 21.3104C60.6579 24.9037 59.8879 27.8554 58.3479 30.1654C56.8446 32.4387 54.8279 33.5754 52.2979 33.5754C49.7679 33.5754 47.7146 32.4204 46.1379 30.1104ZM104.406 36.197L104.403 36.2007C101.018 40.2083 96.6101 42.2204 91.2637 42.2204C85.917 42.2204 81.5255 40.2079 78.1761 36.1963C74.8487 32.2113 73.2137 27.2246 73.2137 21.3104C73.2137 15.4289 74.8694 10.4601 78.2335 6.47655C81.6171 2.43293 86.0246 0.400391 91.3737 0.400391C96.6854 0.400391 101.057 2.41413 104.405 6.42251C107.769 10.4071 109.424 15.3945 109.424 21.3104C109.424 27.1928 107.768 32.1783 104.406 36.197ZM78.9987 7.12039C75.8087 10.8971 74.2137 15.6271 74.2137 21.3104C74.2137 27.0304 75.7903 31.7787 78.9437 35.5554C82.097 39.3321 86.2037 41.2204 91.2637 41.2204C96.3237 41.2204 100.449 39.3321 103.639 35.5554C106.829 31.7421 108.424 26.9937 108.424 21.3104C108.424 15.5904 106.829 10.8421 103.639 7.06539C100.485 3.28872 96.397 1.40039 91.3737 1.40039C86.3137 1.40039 82.1887 3.30706 78.9987 7.12039ZM96.5896 29.6138L96.5916 29.6107C97.994 27.5071 98.7337 24.7638 98.7337 21.3104C98.7337 17.9394 97.9798 15.2346 96.5427 13.1291L96.5386 13.1231C95.1187 11.0097 93.375 10.0454 91.2637 10.0454C89.147 10.0454 87.425 10.9962 86.0457 13.0651L86.0416 13.0713C84.6437 15.1349 83.9037 17.856 83.9037 21.3104C83.9037 24.7221 84.6411 27.4463 86.0425 29.5508C87.4554 31.6187 89.2145 32.5754 91.3737 32.5754C93.5383 32.5754 95.2544 31.6328 96.5896 29.6138ZM123.014 35.8954V25.9954H113.059V16.4054H123.014V6.50539H132.824V16.4054H142.779V25.9954H132.824V35.8954H123.014ZM131.824 24.9954H141.779V17.4054H131.824V7.50539H124.014V17.4054H114.059V24.9954H124.014V34.8954H131.824V24.9954ZM91.3737 33.5754C88.8437 33.5754 86.7903 32.4204 85.2137 30.1104C83.6737 27.8004 82.9037 24.8671 82.9037 21.3104C82.9037 17.7171 83.6737 14.7837 85.2137 12.5104C86.7537 10.2004 88.7703 9.04539 91.2637 9.04539C93.757 9.04539 95.792 10.2187 97.3687 12.5654C98.9453 14.8754 99.7337 17.7904 99.7337 21.3104C99.7337 24.9037 98.9637 27.8554 97.4237 30.1654C95.9203 32.4387 93.9037 33.5754 91.3737 33.5754Z" fill="black"></path>
</svg>
