<?xml version="1.0" encoding="UTF-8"?>
<svg xmlns="http://www.w3.org/2000/svg" width="90" height="47" viewBox="0 0 90 47" fill="none">
  <path d="M22.0609 5.19838C22.615 3.02936 22.8921 1.94486 23.7041 1.31422C24.5161 0.683594 25.6355 0.683594 27.8742 0.683594H32.2277C35.782 0.683594 37.5591 0.683594 38.4599 1.84346C39.3607 3.00333 38.9208 4.72515 38.041 8.16881L29.2899 42.4213C28.7358 44.5903 28.4587 45.6749 27.6467 46.3055C26.8347 46.9361 25.7154 46.9361 23.4767 46.9361H19.1231C15.5688 46.9361 13.7917 46.9361 12.8909 45.7762C11.9901 44.6164 12.43 42.8946 13.3098 39.4509L22.0609 5.19838Z" fill="#FDD303"></path>
  <path fill-rule="evenodd" clip-rule="evenodd" d="M8.78966 43.5604V13.6411L2.35472 15.2234L0.114258 6.40161L12.2286 2.78539H19.1497V43.5604H8.78966ZM9.78966 12.3654V42.5604H18.1497V3.78539H12.3747L1.31966 7.08539L3.07966 14.0154L9.78966 12.3654ZM24.719 38.8396L30.3056 30.77L31.1425 31.4395C33.7574 33.5314 36.3486 34.5204 38.9328 34.5204C40.9454 34.5204 42.4476 33.8374 43.556 32.5135C44.3396 31.5775 44.9384 30.3964 45.3302 28.9448C43.4757 29.9326 41.3336 30.4154 38.9328 30.4154C34.5399 30.4154 30.9271 29.2661 28.2062 26.8652L28.2003 26.8601L28.1946 26.8548C25.4919 24.3942 24.1828 21.0246 24.1828 16.8754C24.1828 12.7263 25.644 9.24807 28.5708 6.51901C31.5338 3.75376 35.3288 2.40039 39.8678 2.40039C42.475 2.40039 44.7155 2.73913 46.5538 3.45782C48.4223 4.174 50.1322 5.3206 51.6849 6.87328C54.9977 10.1861 56.5428 15.3794 56.5428 22.2104C56.5428 28.7392 55.0412 34.0725 51.9354 38.1101C48.7896 42.1996 44.3365 44.2204 38.7128 44.2204C33.7129 44.2204 29.2703 42.6172 25.4241 39.4249L24.719 38.8396ZM46.1928 4.39039C44.5061 3.73039 42.3978 3.40039 39.8678 3.40039C35.5411 3.40039 32.0028 4.68372 29.2528 7.25039C26.5395 9.78039 25.1828 12.9887 25.1828 16.8754C25.1828 20.7987 26.4111 23.8787 28.8678 26.1154C31.3611 28.3154 34.7161 29.4154 38.9328 29.4154C41.536 29.4154 43.7643 28.8157 45.6178 27.6162C46.0095 27.3627 46.3845 27.0825 46.7428 26.7754C46.6883 27.2723 46.6162 27.7503 46.5263 28.2093C46.1322 30.2228 45.3977 31.8714 44.3228 33.1554C43.0028 34.7321 41.2061 35.5204 38.9328 35.5204C36.3485 35.5204 33.8092 34.6223 31.3147 32.8261C31.0486 32.6344 30.7829 32.4325 30.5178 32.2204L26.0628 38.6554C29.7295 41.6987 33.9461 43.2204 38.7128 43.2204C44.0661 43.2204 48.2095 41.3137 51.1428 37.5004C54.0761 33.6871 55.5428 28.5904 55.5428 22.2104C55.5428 15.5004 54.0211 10.6237 50.9778 7.58039C49.5111 6.11372 47.9161 5.05039 46.1928 4.39039ZM35.9867 13.0399L35.9859 13.0407C35.0832 13.8852 34.5978 15.0337 34.5978 16.6004C34.5978 18.0588 35.0955 19.1702 36.0729 20.0292C37.0547 20.892 38.4287 21.3754 40.3078 21.3754C42.1844 21.3754 43.5302 20.8935 44.47 20.0451C45.422 19.1496 45.9078 18.0113 45.9078 16.5454C45.9078 15.0867 45.4093 13.9496 44.4201 13.0503C43.441 12.1602 42.0555 11.6604 40.1428 11.6604C38.2705 11.6604 36.9276 12.1579 35.9867 13.0399ZM45.1478 20.7804C43.9745 21.8437 42.3611 22.3754 40.3078 22.3754C38.2545 22.3754 36.6228 21.8437 35.4128 20.7804C34.2028 19.7171 33.5978 18.3237 33.5978 16.6004C33.5978 14.8037 34.1661 13.3737 35.3028 12.3104C36.4761 11.2104 38.0895 10.6604 40.1428 10.6604C42.2328 10.6604 43.8828 11.2104 45.0928 12.3104C46.3028 13.4104 46.9078 14.8221 46.9078 16.5454C46.9078 18.2687 46.3211 19.6804 45.1478 20.7804ZM70.1138 37.8954V27.9954H60.1588V18.4054H70.1138V8.50539H79.9238V18.4054H89.8788V27.9954H79.9238V37.8954H70.1138ZM78.9238 26.9954H88.8788V19.4054H78.9238V9.50539H71.1138V19.4054H61.1588V26.9954H71.1138V36.8954H78.9238V26.9954Z" fill="black"></path>
</svg>
