<?xml version="1.0" encoding="UTF-8"?>
<svg xmlns="http://www.w3.org/2000/svg" width="64" height="47" viewBox="0 0 64 47" fill="none">
  <path d="M17.4789 5.18862C18.033 3.0196 18.3101 1.93509 19.1221 1.30446C19.9341 0.673828 21.0534 0.673828 23.2921 0.673828H27.6457C31.2 0.673828 32.9771 0.673828 33.8779 1.83369C34.7787 2.99356 34.3388 4.71539 33.459 8.15904L24.7079 42.4116C24.1538 44.5806 23.8767 45.6651 23.0647 46.2957C22.2527 46.9263 21.1333 46.9263 18.8946 46.9263H14.5411C10.9868 46.9263 9.20968 46.9263 8.30888 45.7665C7.40809 44.6066 7.84799 42.8848 8.7278 39.4411L17.4789 5.18862Z" fill="#FDD303"></path>
  <path fill-rule="evenodd" clip-rule="evenodd" d="M13.5103 23.3466L0.695312 33.852V40.5623H29.1853V33.247H12.4103L18.6803 28.4068C21.247 26.4267 23.172 24.8133 24.4553 23.5666C25.7386 22.2832 26.7836 20.8165 27.5903 19.1664C28.397 17.4797 28.8003 15.5913 28.8003 13.5012C28.8003 9.87107 27.5903 6.97429 25.1703 4.81087C22.7503 2.61079 19.542 1.51074 15.5453 1.51074C12.282 1.51074 9.56865 2.15243 7.40531 3.43582C5.27865 4.7192 3.20698 6.73595 1.19031 9.48606L7.13008 14.2711C7.14784 14.249 7.16581 14.2271 7.18352 14.2052C8.66481 12.3701 9.96708 11.072 11.0903 10.3111C12.2636 9.50439 13.5653 9.10104 14.9953 9.10104C16.5353 9.10104 17.782 9.54106 18.7353 10.4211C19.6886 11.3011 20.1653 12.5295 20.1653 14.1062C20.1653 15.6463 19.6886 17.058 18.7353 18.3414C17.782 19.5881 16.0403 21.2565 13.5103 23.3466ZM6.98758 12.8721C8.26584 11.3613 9.44584 10.2179 10.5264 9.48521C11.8665 8.56457 13.365 8.101 14.9953 8.101C16.7368 8.101 18.2419 8.60465 19.4136 9.68626C20.6153 10.7955 21.1653 12.3153 21.1653 14.1062C21.1653 15.8697 20.6143 17.489 19.5381 18.9378L19.5297 18.9489C18.5033 20.2913 16.6867 22.0197 14.1472 24.1176L14.1443 24.12L1.69531 34.3253V39.5622H28.1853V34.247H9.47834L18.0693 27.6152C20.6222 25.6457 22.5106 24.0609 23.7533 22.8544C24.9542 21.6523 25.9326 20.2793 26.69 18.7311C27.4238 17.1952 27.8003 15.4581 27.8003 13.5012C27.8003 10.1182 26.6852 7.5065 24.5038 5.55644L24.4976 5.55087C22.3005 3.55339 19.3512 2.51078 15.5453 2.51078C12.411 2.51078 9.88778 3.12685 7.91881 4.29395C6.13312 5.37225 4.34757 7.03236 2.5722 9.31513L6.98758 12.8721ZM41.986 20.718L40.2759 21.505C38.3344 22.3984 36.9404 23.5415 36.0279 24.9063C35.118 26.2672 34.6429 27.9139 34.6429 29.8919C34.6429 32.9379 35.8773 35.3564 38.4161 37.2271C40.992 39.1252 44.3256 40.1123 48.4929 40.1123C52.703 40.1123 56.0352 39.1406 58.571 37.2811C61.0991 35.4177 62.3429 32.9494 62.3429 29.7819C62.3429 27.6961 61.8652 26.1071 60.9978 24.9299C60.0873 23.6941 58.6646 22.5354 56.6621 21.4815L55.0982 20.6583L56.6092 19.7415C59.5924 17.9314 61.0229 15.4404 61.0229 12.1812C61.0229 9.41704 59.9238 7.14932 57.654 5.3134C55.3805 3.47446 52.3577 2.51078 48.4929 2.51078C44.6694 2.51078 41.6429 3.47224 39.3289 5.31575C37.0543 7.15669 35.9629 9.38978 35.9629 12.0712C35.9629 15.4122 37.4009 17.9359 40.3766 19.7415L41.986 20.718ZM59.1629 38.0872C56.4129 40.1039 52.8562 41.1123 48.4929 41.1123C44.1662 41.1123 40.6096 40.0856 37.8229 38.0322C35.0362 35.9788 33.6429 33.2653 33.6429 29.8919C33.6429 25.9756 35.3692 23.0524 38.8217 21.1222C39.1514 20.9379 39.4968 20.7627 39.8579 20.5965C39.5189 20.3908 39.1975 20.1758 38.8937 19.9515C36.2732 18.0167 34.9629 15.3899 34.9629 12.0712C34.9629 9.06437 36.2096 6.55261 38.7029 4.53586C41.2329 2.51912 44.4962 1.51074 48.4929 1.51074C52.5262 1.51074 55.7896 2.51912 58.2829 4.53586C60.7762 6.55261 62.0229 9.10104 62.0229 12.1812C62.0229 15.4435 60.7051 18.0396 58.0695 19.9693C57.7724 20.1868 57.4585 20.3959 57.1279 20.5965C57.4726 20.7779 57.8028 20.9633 58.1185 21.1527C59.7174 22.1117 60.9455 23.1731 61.8029 24.3366C62.8296 25.73 63.3429 27.5451 63.3429 29.7819C63.3429 33.2653 61.9496 36.0338 59.1629 38.0872ZM43.8125 17.2181L43.7985 17.2051C42.6028 16.098 41.9929 14.6947 41.9929 13.0612C41.9929 11.4819 42.6179 10.1315 43.8135 9.06863C45.0323 7.9852 46.6304 7.49598 48.4929 7.49598C50.3219 7.49598 51.8965 7.98682 53.1105 9.06264C54.3332 10.1136 54.9929 11.4436 54.9929 13.0062C54.9929 14.706 54.3684 16.1433 53.1105 17.2248C51.8965 18.3006 50.3219 18.7914 48.4929 18.7914C46.6589 18.7914 45.0726 18.2983 43.8271 17.2306L43.8125 17.2181ZM52.4529 16.4713C53.4796 15.5913 53.9929 14.4363 53.9929 13.0062C53.9929 11.7595 53.4796 10.6961 52.4529 9.81607C51.4629 8.93604 50.1429 8.49602 48.4929 8.49602C46.8062 8.49602 45.4679 8.93604 44.4779 9.81607C43.4879 10.6961 42.9929 11.7778 42.9929 13.0612C42.9929 14.4179 43.4879 15.5546 44.4779 16.4713C45.5046 17.3514 46.8429 17.7914 48.4929 17.7914C50.1429 17.7914 51.4629 17.3514 52.4529 16.4713ZM53.9427 33.5446C52.5382 34.6392 50.6829 35.1271 48.4929 35.1271C46.3295 35.1271 44.4822 34.6348 43.049 33.5491C41.6235 32.4691 40.8379 31.052 40.8379 29.3418C40.8379 27.52 41.5958 26.0376 43.0785 25.0031C44.5374 23.9741 46.3687 23.5016 48.4929 23.5016C50.6057 23.5016 52.4183 23.9508 53.844 24.9423C55.3532 25.9656 56.1479 27.4251 56.1479 29.2318C56.1479 30.9943 55.3805 32.4529 53.9427 33.5446ZM53.3329 32.752C52.1596 33.6687 50.5462 34.127 48.4929 34.127C46.4762 34.127 44.8629 33.6687 43.6529 32.752C42.4429 31.8353 41.8379 30.6986 41.8379 29.3418C41.8379 27.8384 42.4429 26.6651 43.6529 25.8217C44.8996 24.9417 46.5129 24.5017 48.4929 24.5017C50.4729 24.5017 52.0679 24.9233 53.2779 25.7667C54.5246 26.6101 55.1479 27.7651 55.1479 29.2318C55.1479 30.6619 54.5429 31.8353 53.3329 32.752Z" fill="black"></path>
</svg>
