<?xml version="1.0" encoding="UTF-8"?>
<svg xmlns="http://www.w3.org/2000/svg" width="104" height="47" viewBox="0 0 104 47" fill="none">
  <path d="M55.0033 5.18471C55.5574 3.01569 55.8345 1.93118 56.6465 1.30055C57.4585 0.669922 58.5779 0.669922 60.8165 0.669922H65.1701C68.7244 0.669922 70.5015 0.669922 71.4023 1.82979C72.3031 2.98966 71.8632 4.71148 70.9834 8.15513L62.2323 42.4077C61.6782 44.5767 61.4011 45.6612 60.5891 46.2918C59.7771 46.9224 58.6577 46.9224 56.419 46.9224H52.0655C48.5112 46.9224 46.7341 46.9224 45.8333 45.7626C44.9325 44.6027 45.3724 42.8809 46.2522 39.4372L55.0033 5.18471Z" fill="#FDD303"></path>
  <path fill-rule="evenodd" clip-rule="evenodd" d="M0.695312 42.5604V34.3771L13.8734 23.5744C13.8739 23.574 13.8744 23.5736 13.8749 23.5732C16.3906 21.495 18.0556 19.8888 18.9367 18.7385C19.7644 17.6221 20.1653 16.4198 20.1653 15.1054C20.1653 13.7429 19.762 12.806 19.057 12.1552C18.3221 11.4768 17.3338 11.1004 15.9953 11.1004C14.7667 11.1004 13.6627 11.4429 12.6568 12.1344L12.6512 12.1383C11.6364 12.8258 10.3898 14.0558 8.90969 15.8969L8.28251 16.6771L0.818784 10.6647L1.38391 9.89403C3.45144 7.07466 5.61512 4.95116 7.88865 3.5792L7.8951 3.57531C10.2523 2.17696 13.1547 1.51039 16.5453 1.51039C20.7312 1.51039 24.1975 2.66696 26.8399 5.06768C29.4965 7.44406 30.8003 10.6248 30.8003 14.5004C30.8003 16.722 30.3708 18.7603 29.4925 20.5968L29.4887 20.6046C28.6341 22.3527 27.5248 23.9101 26.1624 25.2725L26.1573 25.2776L26.1521 25.2827C24.8281 26.5688 22.8681 28.2092 20.2914 30.197C20.2913 30.197 20.2914 30.1969 20.2914 30.197L16.3423 33.2454H31.1853V42.5604H0.695312ZM13.4103 34.2454L19.6803 29.4054C22.247 27.4254 24.172 25.8121 25.4553 24.5654C26.7386 23.2821 27.7836 21.8154 28.5903 20.1654C29.397 18.4787 29.8003 16.5904 29.8003 14.5004C29.8003 10.8704 28.5903 7.97372 26.1703 5.81039C23.7503 3.61039 20.542 2.51039 16.5453 2.51039C13.282 2.51039 10.5686 3.15206 8.40531 4.43539C6.27865 5.71872 4.20698 7.73539 2.19031 10.4854L8.13008 15.2702C8.14784 15.2481 8.16581 15.2263 8.18352 15.2043C9.66481 13.3693 10.9671 12.0713 12.0903 11.3104C13.2636 10.5037 14.5653 10.1004 15.9953 10.1004C17.5353 10.1004 18.782 10.5404 19.7353 11.4204C20.6886 12.3004 21.1653 13.5287 21.1653 15.1054C21.1653 16.6454 20.6886 18.0571 19.7353 19.3404C18.782 20.5871 17.0403 22.2554 14.5103 24.3454L1.69531 34.8504V41.5604H30.1853V34.2454H13.4103ZM65.3299 37.197L65.3269 37.2007C61.9417 41.2083 57.5344 43.2204 52.1879 43.2204C46.8412 43.2204 42.4498 41.2079 39.1003 37.1963C35.773 33.2113 34.1379 28.2246 34.1379 22.3104C34.1379 16.4292 35.7935 11.4605 39.1573 7.47705C42.541 3.4331 46.9486 1.40039 52.2979 1.40039C57.6096 1.40039 61.9812 3.41413 65.3289 7.42251C68.6934 11.4071 70.3479 16.3945 70.3479 22.3104C70.3479 28.1928 68.6918 33.1783 65.3299 37.197ZM39.9229 8.12039C36.7329 11.8971 35.1379 16.6271 35.1379 22.3104C35.1379 28.0304 36.7146 32.7787 39.8679 36.5554C43.0212 40.3321 47.1279 42.2204 52.1879 42.2204C57.2479 42.2204 61.3729 40.3321 64.5629 36.5554C67.7529 32.7421 69.3479 27.9937 69.3479 22.3104C69.3479 16.5904 67.7529 11.8421 64.5629 8.06539C61.4096 4.28872 57.3212 2.40039 52.2979 2.40039C47.2379 2.40039 43.1129 4.30706 39.9229 8.12039ZM57.5138 30.6138L57.5158 30.6107C58.9183 28.5071 59.6579 25.7638 59.6579 22.3104C59.6579 18.9394 58.904 16.2346 57.4669 14.1291L57.4628 14.1231C56.0429 12.0097 54.2992 11.0454 52.1879 11.0454C50.0712 11.0454 48.3492 11.9962 46.9699 14.0651L46.9658 14.0713C45.5679 16.1349 44.8279 18.856 44.8279 22.3104C44.8279 25.7223 45.5654 28.4465 46.9669 30.5511C48.3797 32.6188 50.1388 33.5754 52.2979 33.5754C54.4625 33.5754 56.1786 32.6328 57.5138 30.6138ZM46.1379 31.1104C44.5979 28.8004 43.8279 25.8671 43.8279 22.3104C43.8279 18.7171 44.5979 15.7837 46.1379 13.5104C47.6779 11.2004 49.6946 10.0454 52.1879 10.0454C54.6812 10.0454 56.7162 11.2187 58.2929 13.5654C59.8696 15.8754 60.6579 18.7904 60.6579 22.3104C60.6579 25.9037 59.8879 28.8554 58.3479 31.1654C56.8446 33.4387 54.8279 34.5754 52.2979 34.5754C49.7679 34.5754 47.7146 33.4204 46.1379 31.1104ZM83.9387 36.8954V26.9954H73.9837V17.4054H83.9387V7.50539H93.7487V17.4054H103.704V26.9954H93.7487V36.8954H83.9387ZM92.7487 25.9954H102.704V18.4054H92.7487V8.50539H84.9387V18.4054H74.9837V25.9954H84.9387V35.8954H92.7487V25.9954Z" fill="black"></path>
</svg>
