<?xml version="1.0" encoding="UTF-8"?>
<svg xmlns="http://www.w3.org/2000/svg" width="103" height="47" viewBox="0 0 103 47" fill="none">
  <path d="M75.4916 5.18471C76.0457 3.01569 76.3228 1.93118 77.1348 1.30055C77.9468 0.669922 79.0661 0.669922 81.3048 0.669922H85.6584C89.2127 0.669922 90.9898 0.669922 91.8906 1.82979C92.7914 2.98966 92.3515 4.71148 91.4717 8.15513L82.7206 42.4077C82.1664 44.5767 81.8894 45.6612 81.0774 46.2918C80.2654 46.9224 79.146 46.9224 76.9073 46.9224H72.5538C68.9995 46.9224 67.2224 46.9224 66.3216 45.7626C65.4208 44.6027 65.8607 42.8809 66.7405 39.4372L75.4916 5.18471Z" fill="#FDD303"></path>
  <path fill-rule="evenodd" clip-rule="evenodd" d="M20.8901 43.5607V35.2557H2.28346L0.617188 27.9908L22.3671 2.78574H30.9751V26.3807H36.1451V35.2557H30.9751V43.5607H20.8901ZM29.9751 34.2557H35.1451V27.3807H29.9751V3.78574H22.8251L1.70507 28.2607L3.08007 34.2557H21.8901V42.5607H29.9751V34.2557ZM21.8901 27.3807H11.6601L21.8901 15.3907V27.3807ZM20.8901 18.1035L13.8278 26.3807H20.8901V18.1035ZM37.539 36.4908L44.798 29.5742L45.4859 30.3447C48.0872 33.2581 50.9294 34.6307 54.035 34.6307C55.4686 34.6307 56.5212 34.2599 57.2897 33.6061C58.074 32.9336 58.48 32.0482 58.48 30.8457C58.48 29.6076 57.9917 28.7166 56.9616 28.0584C55.8657 27.3583 54.23 26.9507 51.945 26.9507H47.6403L46.0002 20.2537L53.8859 12.3207H40.165V3.06074H68.18V10.8686L59.5042 19.1523C62.1927 19.8495 64.3567 20.9978 65.9252 22.6497C67.8615 24.689 68.785 27.3847 68.785 30.6257C68.785 34.5835 67.4209 37.8813 64.6722 40.4319C61.953 42.9895 58.3327 44.2207 53.925 44.2207C47.3872 44.2207 42.0921 41.8922 38.1454 37.2103L37.539 36.4908ZM63.99 39.7007C66.52 37.3541 67.785 34.3291 67.785 30.6257C67.785 24.9031 64.7383 21.3521 58.6449 19.9727C58.2573 19.8849 57.8573 19.8059 57.445 19.7357L67.18 10.4407V4.06074H41.165V11.3207H56.29L47.105 20.5607L48.425 25.9507H51.945C54.3283 25.9507 56.18 26.3724 57.5 27.2157C58.82 28.0591 59.48 29.2691 59.48 30.8457C59.48 32.3124 58.9667 33.4857 57.94 34.3657C56.95 35.2091 55.6483 35.6307 54.035 35.6307C50.8717 35.6307 48.0017 34.3335 45.4252 31.7391C45.1945 31.5067 44.9661 31.2639 44.74 31.0107L38.91 36.5657C42.65 41.0024 47.655 43.2207 53.925 43.2207C58.1417 43.2207 61.4967 42.0474 63.99 39.7007ZM71.5751 43.5607V35.3774L84.7533 24.5748C84.7537 24.5744 84.7541 24.5741 84.7545 24.5738C87.2703 22.4954 88.9354 20.8892 89.8166 19.7388C90.6442 18.6225 91.0452 17.4201 91.0452 16.1057C91.0452 14.7433 90.6419 13.8063 89.9369 13.1555C89.2019 12.4771 88.2136 12.1007 86.8752 12.1007C85.6465 12.1007 84.5425 12.4432 83.5367 13.1348L83.531 13.1387C82.5162 13.8261 81.2697 15.0562 79.7895 16.8973L79.1623 17.6774L71.6986 11.665L72.2637 10.8944C74.3313 8.07502 76.495 5.95151 78.7685 4.57956L78.7749 4.57566C81.1322 3.17734 84.0345 2.51074 87.4251 2.51074C91.6111 2.51074 95.0774 3.66735 97.7199 6.06814C100.376 8.44451 101.68 11.6252 101.68 15.5007C101.68 17.7223 101.251 19.7607 100.372 21.5972L100.369 21.605C99.5139 23.353 98.4047 24.9105 97.0423 26.2729L97.0371 26.278L97.0319 26.283C95.7079 27.5692 93.7479 29.2096 91.1712 31.1973C91.1711 31.1974 91.1713 31.1973 91.1712 31.1973L87.2221 34.2457H102.065V43.5607H71.5751ZM84.2902 35.2457L90.5602 30.4057C93.1268 28.4257 95.0518 26.8124 96.3352 25.5657C97.6185 24.2824 98.6635 22.8157 99.4702 21.1657C100.277 19.4791 100.68 17.5907 100.68 15.5007C100.68 11.8707 99.4702 8.97408 97.0501 6.81074C94.6301 4.61074 91.4218 3.51074 87.4251 3.51074C84.1618 3.51074 81.4485 4.15241 79.2851 5.43574C77.1585 6.71908 75.0868 8.73574 73.0702 11.4857L79.0083 16.2692L79.0101 16.2707C79.0285 16.248 79.0468 16.2253 79.065 16.2026C80.5456 14.3687 81.8473 13.0714 82.9702 12.3107C84.1435 11.5041 85.4452 11.1007 86.8752 11.1007C88.4152 11.1007 89.6618 11.5407 90.6152 12.4207C91.5685 13.3007 92.0452 14.5291 92.0452 16.1057C92.0452 17.6457 91.5685 19.0574 90.6152 20.3407C89.6618 21.5874 87.9202 23.2557 85.3902 25.3457L72.5751 35.8507V42.5607H101.065V35.2457H84.2902Z" fill="black"></path>
</svg>
