<?xml version="1.0" encoding="UTF-8"?>
<svg xmlns="http://www.w3.org/2000/svg" width="137" height="47" viewBox="0 0 137 47" fill="none">
  <path d="M39.1175 5.18471C39.6717 3.01569 39.9488 1.93118 40.7608 1.30055C41.5728 0.669922 42.6921 0.669922 44.9308 0.669922H49.2844C52.8386 0.669922 54.6158 0.669922 55.5166 1.82979C56.4173 2.98966 55.9774 4.71148 55.0976 8.15513L46.3466 42.4077C45.7924 44.5767 45.5153 45.6612 44.7033 46.2918C43.8913 46.9224 42.772 46.9224 40.5333 46.9224H36.1797C32.6255 46.9224 30.8483 46.9224 29.9476 45.7626C29.0468 44.6027 29.4867 42.8809 30.3665 39.4372L39.1175 5.18471Z" fill="#FDD303"></path>
  <path fill-rule="evenodd" clip-rule="evenodd" d="M0.30957 44.5604V36.3771L13.4877 25.5744C13.4882 25.574 13.4887 25.5736 13.4892 25.5732C16.0048 23.495 17.6699 21.8888 18.551 20.7385C19.3786 19.6221 19.7796 18.4198 19.7796 17.1054C19.7796 15.7429 19.3763 14.806 18.6713 14.1552C17.9363 13.4768 16.9481 13.1004 15.6096 13.1004C14.3809 13.1004 13.277 13.4429 12.2711 14.1344L12.2654 14.1383C11.2506 14.8258 10.0041 16.0558 8.52395 17.8969L7.89677 18.6771L0.433041 12.6647L0.998165 11.894C3.0657 9.07466 5.22938 6.95116 7.50291 5.5792L7.50935 5.57531C9.86657 4.17696 12.7689 3.51039 16.1596 3.51039C20.3455 3.51039 23.8117 4.66696 26.4542 7.06768C29.1107 9.44406 30.4146 12.6248 30.4146 16.5004C30.4146 18.722 29.985 20.7603 29.1067 22.5968L29.103 22.6046C28.2484 24.3527 27.1391 25.9101 25.7767 27.2725L25.7716 27.2776L25.7664 27.2827C24.4424 28.5688 22.4823 30.2092 19.9056 32.197C19.9055 32.197 19.9057 32.1969 19.9056 32.197L15.9565 35.2454H30.7996V44.5604H0.30957ZM13.0246 36.2454L19.2946 31.4054C21.8612 29.4254 23.7862 27.8121 25.0696 26.5654C26.3529 25.2821 27.3979 23.8154 28.2046 22.1654C29.0112 20.4787 29.4146 18.5904 29.4146 16.5004C29.4146 12.8704 28.2046 9.97372 25.7846 7.81039C23.3646 5.61039 20.1562 4.51039 16.1596 4.51039C12.8962 4.51039 10.1829 5.15206 8.01957 6.43539C5.8929 7.71872 3.82124 9.73539 1.80457 12.4854L7.74434 17.2702C7.7621 17.2481 7.78007 17.2263 7.79778 17.2043C9.27907 15.3693 10.5813 14.0713 11.7046 13.3104C12.8779 12.5037 14.1796 12.1004 15.6096 12.1004C17.1496 12.1004 18.3962 12.5404 19.3496 13.4204C20.3029 14.3004 20.7796 15.5287 20.7796 17.1054C20.7796 18.6454 20.3029 20.0571 19.3496 21.3404C18.3962 22.5871 16.6546 24.2554 14.1246 26.3454L1.30957 36.8504V43.5604H29.7996V36.2454H13.0246ZM32.7787 38.5216L39.1628 30.9019L39.9331 31.5989C42.8969 34.2804 45.73 35.5204 48.4472 35.5204C50.3133 35.5204 51.6335 35.0799 52.5345 34.3242C53.4068 33.5926 53.8822 32.5563 53.8822 31.0754C53.8822 29.7642 53.3976 28.805 52.4198 28.086L52.4122 28.0805L52.4047 28.0747C51.3796 27.2908 49.9638 26.8504 48.0621 26.8504C46.166 26.8504 44.1544 27.2902 42.0192 28.2003L41.5236 28.4116L35.7006 24.5513L36.8884 4.06039H62.4822V13.4854H46.0282L45.7379 17.8757C47.0984 17.6132 48.4235 17.4804 49.7122 17.4804C53.884 17.4804 57.3711 18.5552 60.0829 20.7885C62.8712 23.0847 64.1871 26.5263 64.1871 30.9104C64.1871 35.223 62.7572 38.7523 59.8428 41.3872C56.9766 43.9747 53.1776 45.2204 48.5572 45.2204C42.7265 45.2204 37.6759 43.1962 33.4567 39.1687L32.7787 38.5216ZM45.6696 18.9089C45.3332 18.9777 44.9941 19.0549 44.6521 19.1404L45.0922 12.4854H61.4822V5.06039H37.8321L36.7322 24.0354L41.6272 27.2804C43.8638 26.3271 46.0088 25.8504 48.0621 25.8504C50.1155 25.8504 51.7655 26.3271 53.0121 27.2804C54.2588 28.1971 54.8822 29.4621 54.8822 31.0754C54.8822 32.7987 54.3138 34.1371 53.1772 35.0904C52.0405 36.0437 50.4638 36.5204 48.4472 36.5204C45.6527 36.5204 42.8428 35.3456 40.0174 32.9961C39.7658 32.7868 39.514 32.5683 39.2621 32.3404L34.1472 38.4454C38.1805 42.2954 42.9838 44.2204 48.5572 44.2204C52.9938 44.2204 56.5322 43.0287 59.1722 40.6454C61.8488 38.2254 63.1871 34.9804 63.1871 30.9104C63.1871 26.7304 61.9405 23.6137 59.4472 21.5604C56.9538 19.5071 53.7088 18.4804 49.7122 18.4804C48.4123 18.4804 47.0648 18.6232 45.6696 18.9089ZM98.4877 39.197L98.4847 39.2007C95.0996 43.2083 90.6922 45.2204 85.3457 45.2204C79.999 45.2204 75.6076 43.2079 72.2581 39.1963C68.9308 35.2113 67.2957 30.2246 67.2957 24.3104C67.2957 18.4289 68.9514 13.4601 72.3155 9.47655C75.6992 5.43293 80.1066 3.40039 85.4557 3.40039C90.7674 3.40039 95.139 5.41413 98.4867 9.42251C101.851 13.4071 103.506 18.3945 103.506 24.3104C103.506 30.1928 101.85 35.1783 98.4877 39.197ZM73.0807 10.1204C69.8907 13.8971 68.2957 18.6271 68.2957 24.3104C68.2957 30.0304 69.8724 34.7787 73.0257 38.5554C76.179 42.3321 80.2857 44.2204 85.3457 44.2204C90.4057 44.2204 94.5307 42.3321 97.7207 38.5554C100.911 34.7421 102.506 29.9937 102.506 24.3104C102.506 18.5904 100.911 13.8421 97.7207 10.0654C94.5674 6.28872 90.479 4.40039 85.4557 4.40039C80.3957 4.40039 76.2707 6.30706 73.0807 10.1204ZM90.6716 32.6138L90.6737 32.6107C92.0761 30.5071 92.8157 27.7638 92.8157 24.3104C92.8157 20.9394 92.0618 18.2346 90.6248 16.1291L90.6206 16.1231C89.2007 14.0097 87.4571 13.0454 85.3457 13.0454C83.229 13.0454 81.507 13.9962 80.1278 16.0651L80.1236 16.0713C78.7257 18.1349 77.9857 20.856 77.9857 24.3104C77.9857 27.7221 78.7232 30.4463 80.1245 32.5508C81.5374 34.6187 83.2965 35.5754 85.4557 35.5754C87.6203 35.5754 89.3364 34.6328 90.6716 32.6138ZM117.096 38.8954V28.9954H107.141V19.4054H117.096V9.50539H126.906V19.4054H136.861V28.9954H126.906V38.8954H117.096ZM125.906 27.9954H135.861V20.4054H125.906V10.5054H118.096V20.4054H108.141V27.9954H118.096V37.8954H125.906V27.9954ZM85.4557 36.5754C82.9257 36.5754 80.8724 35.4204 79.2957 33.1104C77.7557 30.8004 76.9857 27.8671 76.9857 24.3104C76.9857 20.7171 77.7557 17.7837 79.2957 15.5104C80.8357 13.2004 82.8524 12.0454 85.3457 12.0454C87.839 12.0454 89.874 13.2187 91.4507 15.5654C93.0274 17.8754 93.8157 20.7904 93.8157 24.3104C93.8157 27.9037 93.0457 30.8554 91.5057 33.1654C90.0024 35.4387 87.9857 36.5754 85.4557 36.5754Z" fill="black"></path>
</svg>
